<?xml version="1.0" encoding="UTF-8" standalone="no"?>
<!DOCTYPE svg PUBLIC "-//W3C//DTD SVG 1.1//EN" "http://www.w3.org/Graphics/SVG/1.1/DTD/svg11.dtd">
<!-- Generated by Microsoft Visio, SVG Export MR-Theater-design.svg Page-1 -->
<svg xmlns="http://www.w3.org/2000/svg" xmlns:xlink="http://www.w3.org/1999/xlink" xmlns:ev="http://www.w3.org/2001/xml-events"
		xmlns:v="http://schemas.microsoft.com/visio/2003/SVGExtensions/" width="11.712in" height="5.92377in"
		viewBox="0 0 843.265 426.512" xml:space="preserve" color-interpolation-filters="sRGB" class="st11">
	<v:documentProperties v:langID="1033" v:metric="true" v:viewMarkup="false">
		<v:userDefs>
			<v:ud v:nameU="msvSubprocessMaster" v:prompt="" v:val="VT4(Rectangle)"/>
			<v:ud v:nameU="msvNoAutoConnect" v:val="VT0(1):26"/>
		</v:userDefs>
	</v:documentProperties>

	<style type="text/css">
	<![CDATA[
		.st1 {fill:#ffffff;stroke:none;stroke-linecap:round;stroke-linejoin:round;stroke-width:0.75}
		.st2 {fill:#000000;stroke:none;stroke-linecap:butt;stroke-width:19.125}
		.st3 {fill:#000000;stroke:none;stroke-linecap:butt;stroke-width:9.5625}
		.st4 {fill:#ffffff;stroke:#000000;stroke-linecap:round;stroke-linejoin:round;stroke-width:2}
		.st5 {fill:#000000;font-family:Microsoft Sans Serif;font-size:1.5em}
		.st6 {fill:#000000;stroke:none;stroke-linecap:butt;stroke-width:6.12}
		.st7 {marker-end:url(#mrkr4-41);stroke:#000000;stroke-linecap:round;stroke-linejoin:round;stroke-width:2}
		.st8 {fill:#000000;fill-opacity:1;stroke:#000000;stroke-opacity:1;stroke-width:0.44247787610619}
		.st9 {fill:none;stroke:none;stroke-linecap:round;stroke-linejoin:round;stroke-width:0.75}
		.st10 {stroke:#000000;stroke-dasharray:14,10;stroke-linecap:round;stroke-linejoin:round;stroke-width:2}
		.st11 {fill:none;fill-rule:evenodd;font-size:12px;overflow:visible;stroke-linecap:square;stroke-miterlimit:3}
	]]>
	</style>

	<defs id="Markers">
		<g id="lend4">
			<path d="M 2 1 L 0 0 L 2 -1 L 2 1 " style="stroke:none"/>
		</g>
		<marker id="mrkr4-41" class="st8" v:arrowType="4" v:arrowSize="2" v:setback="4.52" refX="-4.52" orient="auto"
				markerUnits="strokeWidth" overflow="visible">
			<use xlink:href="#lend4" transform="scale(-2.26,-2.26) "/>
		</marker>
	</defs>
	<g v:mID="0" v:index="1" v:groupContext="foregroundPage">
		<v:userDefs>
			<v:ud v:nameU="msvThemeOrder" v:val="VT0(0):26"/>
		</v:userDefs>
		<title>Page-1</title>
		<v:pageProperties v:drawingScale="0.0393701" v:pageScale="0.0393701" v:drawingUnits="24" v:shadowOffsetX="8.50394"
				v:shadowOffsetY="-8.50394"/>
		<v:layer v:name="Connector" v:index="0"/>
		<g id="shape113-1" v:mID="113" v:groupContext="shape" transform="translate(18.375,-90.6564)">
			<title>Rectangle.113</title>
			<v:userDefs>
				<v:ud v:nameU="visVersion" v:val="VT0(15):26"/>
			</v:userDefs>
			<rect x="0" y="208.244" width="161.092" height="218.268" class="st1"/>
		</g>
		<g id="shape87-3" v:mID="87" v:groupContext="shape" transform="translate(692.479,-142.672)">
			<title>Rectangle.87</title>
			<v:userDefs>
				<v:ud v:nameU="visVersion" v:val="VT0(15):26"/>
			</v:userDefs>
			<rect x="0" y="270.606" width="102.48" height="155.906" class="st1"/>
		</g>
		<g id="group41-5" transform="translate(706.652,-142.672)" v:mID="41" v:groupContext="group">
			<title>Sheet.41</title>
			<g id="group42-6" transform="translate(0,-49.677)" v:mID="42" v:groupContext="group">
				<title>Sheet.42</title>
				<g id="shape43-7" v:mID="43" v:groupContext="shape" transform="translate(0,-9.5417)">
					<title>Sheet.43</title>
					<path d="M66.21 426.51 L7.9 426.51 C3.54 426.51 0 422.97 0 418.64 L0 381.65 C0 377.3 3.54 373.75 7.9 373.75 L66.24
								 373.75 C70.59 373.75 74.13 377.3 74.13 381.65 L74.13 418.64 C74.11 422.97 70.57 426.51 66.21 426.51
								 ZM7.9 376.07 C4.82 376.07 2.32 378.57 2.32 381.65 L2.32 418.64 C2.32 421.72 4.82 424.22 7.9 424.22
								 L66.24 424.22 C69.32 424.22 71.82 421.72 71.82 418.64 L71.82 381.65 C71.82 378.57 69.32 376.07 66.24
								 376.07 L7.9 376.07 Z" class="st2"/>
				</g>
				<g id="shape44-9" v:mID="44" v:groupContext="shape" transform="translate(23.6458,0)">
					<title>Sheet.44</title>
					<rect x="0" y="424.196" width="26.8187" height="2.31595" class="st2"/>
				</g>
				<g id="shape45-11" v:mID="45" v:groupContext="shape" transform="translate(29.2967,0)">
					<title>Sheet.45</title>
					<path d="M15.52 426.51 L0 426.51 L0 415.81 L2.32 415.81 L2.32 424.2 L13.2 424.2 L13.2 416.34 L15.52 416.34 L15.52
								 426.51 Z" class="st2"/>
				</g>
			</g>
		</g>
		<g id="group77-13" transform="translate(18.375,-90.358)" v:mID="77" v:groupContext="group">
			<title>Sheet.77</title>
			<g id="shape78-14" v:mID="78" v:groupContext="shape" transform="translate(15.1024,-73.0932)">
				<title>Sheet.78</title>
				<path d="M94.39 301.18 L72.99 355.81 L72.99 349.42 L36.5 328.35 L0 349.42 L0 390.3 L36.5 411.37 L41.34 408.58 C44.46
							 418.94 54.08 426.51 65.44 426.51 C75.25 426.51 83.74 420.86 87.9 412.66 L94.39 416.41 L131.19 395.16
							 L94.39 301.18 ZM95.65 311.3 L128.07 394.07 L95.65 412.78 L95.65 311.3 ZM93.13 311.3 L93.13 412.78 L88.94
							 410.36 C89.04 410.12 89.1 409.87 89.18 409.63 C89.32 409.24 89.45 408.85 89.57 408.46 C89.69 408.06
							 89.79 407.65 89.89 407.24 C89.97 406.88 90.07 406.53 90.14 406.16 C90.24 405.67 90.3 405.16 90.37 404.65
							 C90.41 404.36 90.46 404.08 90.49 403.79 C90.57 402.98 90.61 402.16 90.61 401.34 C90.61 400.56 90.57
							 399.79 90.5 399.02 C90.47 398.74 90.43 398.46 90.39 398.18 C90.33 397.71 90.26 397.25 90.18 396.78 C90.11
							 396.44 90.04 396.1 89.97 395.76 C89.88 395.39 89.79 395.03 89.69 394.66 C89.58 394.28 89.47 393.9 89.35
							 393.52 C89.27 393.28 89.18 393.04 89.09 392.8 C88.74 391.85 88.35 390.92 87.89 390.02 C87.85 389.94
							 87.81 389.85 87.77 389.77 C87.52 389.3 87.26 388.84 86.98 388.39 C86.89 388.24 86.8 388.09 86.71 387.94
							 C86.42 387.49 86.13 387.05 85.82 386.62 C85.73 386.5 85.64 386.38 85.55 386.26 C82.42 382.11 78.06 378.93
							 72.99 377.34 L72.99 362.72 L93.13 311.3 ZM36.5 331.25 L68.86 349.94 L36.5 368.62 L4.14 349.94 L36.5
							 331.25 ZM2.52 351.91 L35.24 370.8 L35.24 407.75 L2.52 388.85 L2.52 351.91 ZM70.48 351.91 L70.48 376.68
							 C68.85 376.34 67.17 376.17 65.44 376.17 C51.56 376.17 40.27 387.46 40.27 401.34 C40.27 402.12 40.32
							 402.91 40.4 403.71 C40.47 404.49 40.58 405.27 40.73 406.03 L37.76 407.74 L37.76 370.8 L70.48 351.91
							 ZM65.44 378.69 C66.38 378.69 67.33 378.76 68.28 378.88 C68.39 378.9 68.5 378.92 68.61 378.93 C69.44
							 379.05 70.27 379.23 71.11 379.45 L71.4 379.53 C75.67 380.69 79.38 383.04 82.21 386.16 C82.25 386.2 82.28
							 386.25 82.32 386.29 C82.69 386.7 83.04 387.13 83.38 387.57 C83.43 387.62 83.47 387.68 83.52 387.74 C84.85
							 389.51 85.92 391.47 86.69 393.56 C86.77 393.77 86.85 393.98 86.92 394.19 C87.04 394.55 87.15 394.93
							 87.25 395.3 C87.34 395.61 87.42 395.92 87.49 396.23 C87.57 396.56 87.64 396.89 87.7 397.22 C87.78 397.62
							 87.84 398.03 87.89 398.45 C87.93 398.71 87.96 398.97 87.99 399.24 C88.05 399.93 88.1 400.63 88.1 401.34
							 C88.1 402.12 88.06 402.9 87.98 403.67 C87.97 403.75 87.95 403.82 87.94 403.9 C87.87 404.59 87.77 405.28
							 87.63 405.95 C87.61 406.02 87.59 406.08 87.58 406.14 C87.43 406.83 87.25 407.51 87.04 408.18 C87.01
							 408.27 86.97 408.35 86.95 408.43 C86.74 409.07 86.5 409.7 86.23 410.32 C82.75 418.36 74.74 423.99 65.44
							 423.99 C54.67 423.99 45.65 416.43 43.37 406.35 C42.99 404.65 42.79 402.97 42.79 401.34 C42.79 388.85
							 52.95 378.69 65.44 378.69 Z" class="st3"/>
			</g>
		</g>
		<g id="shape85-16" v:mID="85" v:groupContext="shape" transform="translate(663.173,-126.81)">
			<title>Rectangle</title>
			<desc>Control Program</desc>
			<v:userDefs>
				<v:ud v:nameU="visVersion" v:val="VT0(15):26"/>
			</v:userDefs>
			<v:textBlock v:margins="rect(4,4,4,4)" v:tabSpace="42.5197"/>
			<v:textRect cx="80.546" cy="410.051" width="161.1" height="32.9221"/>
			<rect x="0" y="393.59" width="161.092" height="32.9221" class="st4"/>
			<text x="14.58" y="415.45" class="st5" v:langID="1033"><v:paragraph v:horizAlign="1"/><v:tabList/>Control Program</text>		</g>
		<g id="group86-19" transform="translate(340.532,-266.404)" v:mID="86" v:groupContext="group">
			<title>Sheet.86</title>
			<g id="shape82-20" v:mID="82" v:groupContext="shape" transform="translate(6.39488E-14,-20.9133)">
				<title>Rectangle.82</title>
				<v:userDefs>
					<v:ud v:nameU="visVersion" v:val="VT0(15):26"/>
				</v:userDefs>
				<rect x="0" y="305.693" width="161.092" height="120.819" class="st1"/>
			</g>
			<g id="group8-22" transform="translate(23.8531,0)" v:mID="8" v:groupContext="group">
				<v:userDefs/>
				<title>Microsoft Hololens</title>
				<desc>Created with Sketch.</desc>
				<g id="group9-23" transform="translate(5.34959,-59.2646)" v:mID="9" v:groupContext="group">
					<title>Sheet.9</title>
					<g id="shape10-24" v:mID="10" v:groupContext="shape" transform="translate(52.4821,-17.9037)">
						<title>Sheet.10</title>
						<path d="M45.59 417.45 C45.14 417.07 44.45 416.6 43.57 416.09 C41.48 414.9 38.54 413.58 34.98 412.31 C25.82
									 409.04 13.95 406.49 0 405.19 L0.21 402.93 C14.34 404.24 26.4 406.84 35.74 410.17 C43.21 412.84
									 48.18 415.7 48.18 417.54 L48.18 426.51 L45.92 426.51 L45.92 417.76 C45.84 417.68 45.73 417.57
									 45.59 417.45 Z" class="st6"/>
					</g>
					<g id="shape11-26" v:mID="11" v:groupContext="shape">
						<title>Sheet.11</title>
						<path d="M2.81 394.08 C2.28 399.18 2.59 404.34 4.4 410.11 C5.78 414.49 7.5 418.16 9.27 420.68 C10.71 422.74
									 12.02 423.75 12.54 423.65 C12.73 423.61 12.93 423.58 13.17 423.54 C13.33 423.51 13.49 423.49
									 13.79 423.44 C14.93 423.26 15.45 423.14 15.8 422.97 C16 422.88 15.96 422.94 15.94 422.83 C15.46
									 420.36 15.74 418.88 17.45 418.91 C18.29 418.92 18.87 419.31 20.34 420.52 C21.38 421.38 21.91
									 421.75 21.91 421.75 C24.34 421.75 30.32 421.02 36.25 419.76 C36.45 419.72 37.69 419.46 38.05
									 419.38 C38.72 419.24 39.27 419.12 39.78 419.01 C46.57 417.53 49.61 416.34 50.19 414.82 C50.36
									 414.38 50.95 412.87 51 412.73 C52.14 409.77 52.75 407.73 53.1 405.16 C53.77 400.36 53.89 395.69
									 53.5 392.06 C53.32 390.43 53.05 389.09 52.72 388.17 C52.57 387.77 52.42 387.47 52.28 387.29
									 C38.49 385.96 25.98 386.55 15.66 388.49 C11.71 389.23 8.32 390.13 5.82 391.05 C4.77 391.44 3.93
									 391.81 3.37 392.13 C3.22 392.22 3.09 392.3 3 392.37 C2.94 392.88 2.84 393.78 2.81 394.08 ZM52.3
									 387.23 C52.32 387.23 52.35 387.24 52.39 387.24 C52.37 387.24 52.34 387.24 52.32 387.24 L52.3
									 387.23 ZM18.16 422.37 C18.42 423.57 17.86 424.5 16.78 425.01 C16.15 425.32 15.53 425.46 14.15
									 425.68 C13.84 425.73 13.7 425.75 13.54 425.78 C13.32 425.81 13.14 425.85 12.97 425.88 C9.67
									 426.51 5.16 420.08 2.24 410.79 C0.32 404.69 0 399.23 0.55 393.85 C0.6 393.4 0.76 392.03 0.77
									 391.87 C0.88 390.04 6.92 387.82 15.24 386.26 C25.79 384.28 38.53 383.68 52.67 384.99 C55.78
									 385.48 56.8 395.04 55.35 405.48 C54.96 408.24 54.32 410.43 53.12 413.54 C53.06 413.69 52.47
									 415.19 52.31 415.62 C51.31 418.25 48.03 419.53 40.27 421.23 C39.75 421.34 39.2 421.46 38.52
									 421.6 C38.16 421.68 36.92 421.94 36.72 421.98 C30.65 423.27 24.51 424.01 21.91 424.01 C21.08
									 424.01 20.65 423.72 18.98 422.33 C18.56 421.99 18.26 421.76 18.03 421.59 C18.06 421.81 18.1
									 422.07 18.16 422.37 Z" class="st6"/>
					</g>
					<g id="shape12-28" v:mID="12" v:groupContext="shape" transform="translate(0.321918,-29.2516)">
						<title>Sheet.12</title>
						<path d="M2.26 426.09 L0 425.95 C0.12 424.08 6.42 421.76 15.08 420.13 C26.09 418.07 39.39 417.44 54.08 418.8
									 L53.87 421.06 C39.39 419.72 26.3 420.33 15.5 422.36 C11.37 423.14 7.82 424.08 5.21 425.04 C4.11
									 425.45 3.23 425.84 2.64 426.17 C2.4 426.31 2.23 426.43 2.13 426.51 C2.18 426.47 2.25 426.37
									 2.26 426.09 Z" class="st6"/>
					</g>
					<g id="shape13-30" v:mID="13" v:groupContext="shape" transform="translate(49.514,-8.79309)">
						<title>Sheet.13</title>
						<path d="M48.15 418.72 C48.66 418.35 49.37 418.46 49.74 418.96 C50.11 419.47 50 420.17 49.5 420.55 C45.84
									 423.24 36.68 425 21.79 425.98 C15.95 426.36 7.82 426.51 1.12 426.35 C0.5 426.34 0 425.82 0.01
									 425.19 C0.03 424.56 0.55 424.07 1.18 424.08 C7.81 424.24 15.87 424.09 21.65 423.71 C36.08 422.77
									 44.99 421.06 48.15 418.72 Z" class="st6"/>
					</g>
					<g id="shape14-32" v:mID="14" v:groupContext="shape" transform="translate(54.8885,-14.8794)">
						<title>Sheet.14</title>
						<path d="M0 414.12 L0.16 411.86 C9.66 412.51 18.37 413.52 26.28 414.87 C37.11 416.73 45.29 419.86 45.78 423.26
									 C45.94 424.38 45.4 425.46 44.27 426.51 L42.72 424.86 C43.36 424.26 43.57 423.84 43.53 423.58
									 C43.27 421.73 35.49 418.75 25.9 417.11 C18.06 415.77 9.43 414.77 0 414.12 Z" class="st6"/>
					</g>
					<g id="shape15-34" v:mID="15" v:groupContext="shape" transform="translate(54.1993,-19.5604)">
						<title>Sheet.15</title>
						<path d="M0 425.2 L0.71 423.05 C1.68 423.37 7.7 423.54 13.35 423.28 C20.8 422.94 26.99 421.98 30.28 420.45
									 L31.24 422.51 C24.69 425.56 3.96 426.51 0 425.2 Z" class="st6"/>
					</g>
				</g>
			</g>
		</g>
		<g id="shape88-36" v:mID="88" v:groupContext="shape" v:layerMember="0" transform="translate(692.479,-240.811)">
			<title>Dynamic connector</title>
			<path d="M0 426.51 L-182.44 354.64" class="st7"/>
		</g>
		<g id="group89-42" transform="translate(340.532,-143.048)" v:mID="89" v:groupContext="group">
			<title>Sheet.89</title>
			<g id="shape90-43" v:mID="90" v:groupContext="shape" transform="translate(6.39488E-14,-20.9133)">
				<title>Rectangle.82</title>
				<v:userDefs>
					<v:ud v:nameU="visVersion" v:val="VT0(15):26"/>
				</v:userDefs>
				<rect x="0" y="305.693" width="161.092" height="120.819" class="st1"/>
			</g>
			<g id="group91-45" transform="translate(23.8531,0)" v:mID="91" v:groupContext="group">
				<v:userDefs/>
				<title>Microsoft Hololens</title>
				<desc>Created with Sketch.</desc>
				<g id="group92-46" transform="translate(5.34959,-59.2646)" v:mID="92" v:groupContext="group">
					<title>Sheet.92</title>
					<g id="shape93-47" v:mID="93" v:groupContext="shape" transform="translate(52.4821,-17.9037)">
						<title>Sheet.93</title>
						<path d="M45.59 417.45 C45.14 417.07 44.45 416.6 43.57 416.09 C41.48 414.9 38.54 413.58 34.98 412.31 C25.82
									 409.04 13.95 406.49 0 405.19 L0.21 402.93 C14.34 404.24 26.4 406.84 35.74 410.17 C43.21 412.84
									 48.18 415.7 48.18 417.54 L48.18 426.51 L45.92 426.51 L45.92 417.76 C45.84 417.68 45.73 417.57
									 45.59 417.45 Z" class="st6"/>
					</g>
					<g id="shape94-49" v:mID="94" v:groupContext="shape">
						<title>Sheet.94</title>
						<path d="M2.81 394.08 C2.28 399.18 2.59 404.34 4.4 410.11 C5.78 414.49 7.5 418.16 9.27 420.68 C10.71 422.74
									 12.02 423.75 12.54 423.65 C12.73 423.61 12.93 423.58 13.17 423.54 C13.33 423.51 13.49 423.49
									 13.79 423.44 C14.93 423.26 15.45 423.14 15.8 422.97 C16 422.88 15.96 422.94 15.94 422.83 C15.46
									 420.36 15.74 418.88 17.45 418.91 C18.29 418.92 18.87 419.31 20.34 420.52 C21.38 421.38 21.91
									 421.75 21.91 421.75 C24.34 421.75 30.32 421.02 36.25 419.76 C36.45 419.72 37.69 419.46 38.05
									 419.38 C38.72 419.24 39.27 419.12 39.78 419.01 C46.57 417.53 49.61 416.34 50.19 414.82 C50.36
									 414.38 50.95 412.87 51 412.73 C52.14 409.77 52.75 407.73 53.1 405.16 C53.77 400.36 53.89 395.69
									 53.5 392.06 C53.32 390.43 53.05 389.09 52.72 388.17 C52.57 387.77 52.42 387.47 52.28 387.29
									 C38.49 385.96 25.98 386.55 15.66 388.49 C11.71 389.23 8.32 390.13 5.82 391.05 C4.77 391.44 3.93
									 391.81 3.37 392.13 C3.22 392.22 3.09 392.3 3 392.37 C2.94 392.88 2.84 393.78 2.81 394.08 ZM52.3
									 387.23 C52.32 387.23 52.35 387.24 52.39 387.24 C52.37 387.24 52.34 387.24 52.32 387.24 L52.3
									 387.23 ZM18.16 422.37 C18.42 423.57 17.86 424.5 16.78 425.01 C16.15 425.32 15.53 425.46 14.15
									 425.68 C13.84 425.73 13.7 425.75 13.54 425.78 C13.32 425.81 13.14 425.85 12.97 425.88 C9.67
									 426.51 5.16 420.08 2.24 410.79 C0.32 404.69 0 399.23 0.55 393.85 C0.6 393.4 0.76 392.03 0.77
									 391.87 C0.88 390.04 6.92 387.82 15.24 386.26 C25.79 384.28 38.53 383.68 52.67 384.99 C55.78
									 385.48 56.8 395.04 55.35 405.48 C54.96 408.24 54.32 410.43 53.12 413.54 C53.06 413.69 52.47
									 415.19 52.31 415.62 C51.31 418.25 48.03 419.53 40.27 421.23 C39.75 421.34 39.2 421.46 38.52
									 421.6 C38.16 421.68 36.92 421.94 36.72 421.98 C30.65 423.27 24.51 424.01 21.91 424.01 C21.08
									 424.01 20.65 423.72 18.98 422.33 C18.56 421.99 18.26 421.76 18.03 421.59 C18.06 421.81 18.1
									 422.07 18.16 422.37 Z" class="st6"/>
					</g>
					<g id="shape95-51" v:mID="95" v:groupContext="shape" transform="translate(0.321918,-29.2516)">
						<title>Sheet.95</title>
						<path d="M2.26 426.09 L0 425.95 C0.12 424.08 6.42 421.76 15.08 420.13 C26.09 418.07 39.39 417.44 54.08 418.8
									 L53.87 421.06 C39.39 419.72 26.3 420.33 15.5 422.36 C11.37 423.14 7.82 424.08 5.21 425.04 C4.11
									 425.45 3.23 425.84 2.64 426.17 C2.4 426.31 2.23 426.43 2.13 426.51 C2.18 426.47 2.25 426.37
									 2.26 426.09 Z" class="st6"/>
					</g>
					<g id="shape96-53" v:mID="96" v:groupContext="shape" transform="translate(49.514,-8.79309)">
						<title>Sheet.96</title>
						<path d="M48.15 418.72 C48.66 418.35 49.37 418.46 49.74 418.96 C50.11 419.47 50 420.17 49.5 420.55 C45.84
									 423.24 36.68 425 21.79 425.98 C15.95 426.36 7.82 426.51 1.12 426.35 C0.5 426.34 0 425.82 0.01
									 425.19 C0.03 424.56 0.55 424.07 1.18 424.08 C7.81 424.24 15.87 424.09 21.65 423.71 C36.08 422.77
									 44.99 421.06 48.15 418.72 Z" class="st6"/>
					</g>
					<g id="shape97-55" v:mID="97" v:groupContext="shape" transform="translate(54.8885,-14.8794)">
						<title>Sheet.97</title>
						<path d="M0 414.12 L0.16 411.86 C9.66 412.51 18.37 413.52 26.28 414.87 C37.11 416.73 45.29 419.86 45.78 423.26
									 C45.94 424.38 45.4 425.46 44.27 426.51 L42.72 424.86 C43.36 424.26 43.57 423.84 43.53 423.58
									 C43.27 421.73 35.49 418.75 25.9 417.11 C18.06 415.77 9.43 414.77 0 414.12 Z" class="st6"/>
					</g>
					<g id="shape98-57" v:mID="98" v:groupContext="shape" transform="translate(54.1993,-19.5604)">
						<title>Sheet.98</title>
						<path d="M0 425.2 L0.71 423.05 C1.68 423.37 7.7 423.54 13.35 423.28 C20.8 422.94 26.99 421.98 30.28 420.45
									 L31.24 422.51 C24.69 425.56 3.96 426.51 0 425.2 Z" class="st6"/>
					</g>
				</g>
			</g>
		</g>
		<g id="group99-59" transform="translate(340.532,-18)" v:mID="99" v:groupContext="group">
			<title>Sheet.99</title>
			<g id="shape100-60" v:mID="100" v:groupContext="shape" transform="translate(6.39488E-14,-20.9133)">
				<title>Rectangle.82</title>
				<v:userDefs>
					<v:ud v:nameU="visVersion" v:val="VT0(15):26"/>
				</v:userDefs>
				<rect x="0" y="305.693" width="161.092" height="120.819" class="st1"/>
			</g>
			<g id="group101-62" transform="translate(23.8531,0)" v:mID="101" v:groupContext="group">
				<v:userDefs/>
				<title>Microsoft Hololens</title>
				<desc>Created with Sketch.</desc>
				<g id="group102-63" transform="translate(5.34959,-59.2646)" v:mID="102" v:groupContext="group">
					<title>Sheet.102</title>
					<g id="shape103-64" v:mID="103" v:groupContext="shape" transform="translate(52.4821,-17.9037)">
						<title>Sheet.103</title>
						<path d="M45.59 417.45 C45.14 417.07 44.45 416.6 43.57 416.09 C41.48 414.9 38.54 413.58 34.98 412.31 C25.82
									 409.04 13.95 406.49 0 405.19 L0.21 402.93 C14.34 404.24 26.4 406.84 35.74 410.17 C43.21 412.84
									 48.18 415.7 48.18 417.54 L48.18 426.51 L45.92 426.51 L45.92 417.76 C45.84 417.68 45.73 417.57
									 45.59 417.45 Z" class="st6"/>
					</g>
					<g id="shape104-66" v:mID="104" v:groupContext="shape">
						<title>Sheet.104</title>
						<path d="M2.81 394.08 C2.28 399.18 2.59 404.34 4.4 410.11 C5.78 414.49 7.5 418.16 9.27 420.68 C10.71 422.74
									 12.02 423.75 12.54 423.65 C12.73 423.61 12.93 423.58 13.17 423.54 C13.33 423.51 13.49 423.49
									 13.79 423.44 C14.93 423.26 15.45 423.14 15.8 422.97 C16 422.88 15.96 422.94 15.94 422.83 C15.46
									 420.36 15.74 418.88 17.45 418.91 C18.29 418.92 18.87 419.31 20.34 420.52 C21.38 421.38 21.91
									 421.75 21.91 421.75 C24.34 421.75 30.32 421.02 36.25 419.76 C36.45 419.72 37.69 419.46 38.05
									 419.38 C38.72 419.24 39.27 419.12 39.78 419.01 C46.57 417.53 49.61 416.34 50.19 414.82 C50.36
									 414.38 50.95 412.87 51 412.73 C52.14 409.77 52.75 407.73 53.1 405.16 C53.77 400.36 53.89 395.69
									 53.5 392.06 C53.32 390.43 53.05 389.09 52.72 388.17 C52.57 387.77 52.42 387.47 52.28 387.29
									 C38.49 385.96 25.98 386.55 15.66 388.49 C11.71 389.23 8.32 390.13 5.82 391.05 C4.77 391.44 3.93
									 391.81 3.37 392.13 C3.22 392.22 3.09 392.3 3 392.37 C2.94 392.88 2.84 393.78 2.81 394.08 ZM52.3
									 387.23 C52.32 387.23 52.35 387.24 52.39 387.24 C52.37 387.24 52.34 387.24 52.32 387.24 L52.3
									 387.23 ZM18.16 422.37 C18.42 423.57 17.86 424.5 16.78 425.01 C16.15 425.32 15.53 425.46 14.15
									 425.68 C13.84 425.73 13.7 425.75 13.54 425.78 C13.32 425.81 13.14 425.85 12.97 425.88 C9.67
									 426.51 5.16 420.08 2.24 410.79 C0.32 404.69 0 399.23 0.55 393.85 C0.6 393.4 0.76 392.03 0.77
									 391.87 C0.88 390.04 6.92 387.82 15.24 386.26 C25.79 384.28 38.53 383.68 52.67 384.99 C55.78
									 385.48 56.8 395.04 55.35 405.48 C54.96 408.24 54.32 410.43 53.12 413.54 C53.06 413.69 52.47
									 415.19 52.31 415.62 C51.31 418.25 48.03 419.53 40.27 421.23 C39.75 421.34 39.2 421.46 38.52
									 421.6 C38.16 421.68 36.92 421.94 36.72 421.98 C30.65 423.27 24.51 424.01 21.91 424.01 C21.08
									 424.01 20.65 423.72 18.98 422.33 C18.56 421.99 18.26 421.76 18.03 421.59 C18.06 421.81 18.1
									 422.07 18.16 422.37 Z" class="st6"/>
					</g>
					<g id="shape105-68" v:mID="105" v:groupContext="shape" transform="translate(0.321918,-29.2516)">
						<title>Sheet.105</title>
						<path d="M2.26 426.09 L0 425.95 C0.12 424.08 6.42 421.76 15.08 420.13 C26.09 418.07 39.39 417.44 54.08 418.8
									 L53.87 421.06 C39.39 419.72 26.3 420.33 15.5 422.36 C11.37 423.14 7.82 424.08 5.21 425.04 C4.11
									 425.45 3.23 425.84 2.64 426.17 C2.4 426.31 2.23 426.43 2.13 426.51 C2.18 426.47 2.25 426.37
									 2.26 426.09 Z" class="st6"/>
					</g>
					<g id="shape106-70" v:mID="106" v:groupContext="shape" transform="translate(49.514,-8.79309)">
						<title>Sheet.106</title>
						<path d="M48.15 418.72 C48.66 418.35 49.37 418.46 49.74 418.96 C50.11 419.47 50 420.17 49.5 420.55 C45.84
									 423.24 36.68 425 21.79 425.98 C15.95 426.36 7.82 426.51 1.12 426.35 C0.5 426.34 0 425.82 0.01
									 425.19 C0.03 424.56 0.55 424.07 1.18 424.08 C7.81 424.24 15.87 424.09 21.65 423.71 C36.08 422.77
									 44.99 421.06 48.15 418.72 Z" class="st6"/>
					</g>
					<g id="shape107-72" v:mID="107" v:groupContext="shape" transform="translate(54.8885,-14.8794)">
						<title>Sheet.107</title>
						<path d="M0 414.12 L0.16 411.86 C9.66 412.51 18.37 413.52 26.28 414.87 C37.11 416.73 45.29 419.86 45.78 423.26
									 C45.94 424.38 45.4 425.46 44.27 426.51 L42.72 424.86 C43.36 424.26 43.57 423.84 43.53 423.58
									 C43.27 421.73 35.49 418.75 25.9 417.11 C18.06 415.77 9.43 414.77 0 414.12 Z" class="st6"/>
					</g>
					<g id="shape108-74" v:mID="108" v:groupContext="shape" transform="translate(54.1993,-19.5604)">
						<title>Sheet.108</title>
						<path d="M0 425.2 L0.71 423.05 C1.68 423.37 7.7 423.54 13.35 423.28 C20.8 422.94 26.99 421.98 30.28 420.45
									 L31.24 422.51 C24.69 425.56 3.96 426.51 0 425.2 Z" class="st6"/>
					</g>
				</g>
			</g>
		</g>
		<g id="shape109-76" v:mID="109" v:groupContext="shape" v:layerMember="0" transform="translate(692.479,-215.241)">
			<title>Dynamic connector.109</title>
			<path d="M0 420.53 L-181.81 418.42" class="st7"/>
		</g>
		<g id="shape110-81" v:mID="110" v:groupContext="shape" v:layerMember="0" transform="translate(692.479,-201.36)">
			<title>Dynamic connector.110</title>
			<path d="M0 426.51 L-182.39 495.09" class="st7"/>
		</g>
		<g id="shape111-86" v:mID="111" v:groupContext="shape" transform="translate(533.824,-306.924)">
			<title>Sheet.111</title>
			<desc>Spawn Msg</desc>
			<v:textBlock v:margins="rect(4,4,4,4)" v:tabSpace="42.5197"/>
			<v:textRect cx="76" cy="416.512" width="152.01" height="20"/>
			<rect x="0" y="406.512" width="152" height="20" class="st9"/>
			<text x="29.09" y="421.91" class="st5" v:langID="1033"><v:paragraph v:horizAlign="1"/><v:tabList/>Spawn Msg</text>		</g>
		<g id="shape112-89" v:mID="112" v:groupContext="shape" transform="translate(33.028,-120.097)">
			<title>Rectangle.112</title>
			<desc>Virtual Effect</desc>
			<v:userDefs>
				<v:ud v:nameU="visVersion" v:val="VT0(15):26"/>
			</v:userDefs>
			<v:textBlock v:margins="rect(4,4,4,4)" v:tabSpace="42.5197"/>
			<v:textRect cx="65.893" cy="410.051" width="131.79" height="32.9221"/>
			<rect x="0" y="393.59" width="131.786" height="32.9221" class="st4"/>
			<text x="14.88" y="415.45" class="st5" v:langID="1033"><v:paragraph v:horizAlign="1"/><v:tabList/>Virtual Effect</text>		</g>
		<g id="shape114-92" v:mID="114" v:groupContext="shape" v:layerMember="0" transform="translate(374.276,-335.339)">
			<title>Dynamic connector.114</title>
			<path d="M0 426.51 L-194.81 522.41" class="st10"/>
		</g>
		<g id="shape115-95" v:mID="115" v:groupContext="shape" v:layerMember="0" transform="translate(371.023,-221.559)">
			<title>Dynamic connector.115</title>
			<path d="M0 426.51 L-191.56 441.84" class="st10"/>
		</g>
		<g id="shape116-98" v:mID="116" v:groupContext="shape" v:layerMember="0" transform="translate(370.137,-108.143)">
			<title>Dynamic connector.116</title>
			<path d="M0 426.51 L-190.67 362.08" class="st10"/>
		</g>
	</g>
</svg>
