<?xml version="1.0" encoding="UTF-8" standalone="no"?>
<!DOCTYPE svg PUBLIC "-//W3C//DTD SVG 1.1//EN" "http://www.w3.org/Graphics/SVG/1.1/DTD/svg11.dtd">
<!-- Generated by Microsoft Visio, SVG Export MR-Theater-design.svg Page-1 -->
<svg xmlns="http://www.w3.org/2000/svg" xmlns:xlink="http://www.w3.org/1999/xlink" xmlns:ev="http://www.w3.org/2001/xml-events"
		xmlns:v="http://schemas.microsoft.com/visio/2003/SVGExtensions/" width="11.6929in" height="8.26772in"
		viewBox="0 0 841.89 595.276" xml:space="preserve" color-interpolation-filters="sRGB" class="st11">
	<v:documentProperties v:langID="1033" v:metric="true" v:viewMarkup="false">
		<v:userDefs>
			<v:ud v:nameU="msvSubprocessMaster" v:prompt="" v:val="VT4(Rectangle)"/>
			<v:ud v:nameU="msvNoAutoConnect" v:val="VT0(1):26"/>
		</v:userDefs>
	</v:documentProperties>

	<style type="text/css">
	<![CDATA[
		.st1 {fill:#ffffff;stroke:none;stroke-linecap:round;stroke-linejoin:round;stroke-width:0.75}
		.st2 {fill:#000000;stroke:none;stroke-linecap:butt;stroke-width:19.125}
		.st3 {fill:#000000;stroke:none;stroke-linecap:butt;stroke-width:9.5625}
		.st4 {fill:#ffffff;stroke:#000000;stroke-linecap:round;stroke-linejoin:round;stroke-width:2}
		.st5 {fill:#000000;font-family:Microsoft Sans Serif;font-size:1.16666em}
		.st6 {fill:#000000;stroke:none;stroke-linecap:butt;stroke-width:6.12}
		.st7 {marker-end:url(#mrkr4-41);stroke:#000000;stroke-linecap:round;stroke-linejoin:round;stroke-width:2}
		.st8 {fill:#000000;fill-opacity:1;stroke:#000000;stroke-opacity:1;stroke-width:0.44247787610619}
		.st9 {fill:none;stroke:none;stroke-linecap:round;stroke-linejoin:round;stroke-width:0.75}
		.st10 {stroke:#000000;stroke-dasharray:14,10;stroke-linecap:round;stroke-linejoin:round;stroke-width:2}
		.st11 {fill:none;fill-rule:evenodd;font-size:12px;overflow:visible;stroke-linecap:square;stroke-miterlimit:3}
	]]>
	</style>

	<defs id="Markers">
		<g id="lend4">
			<path d="M 2 1 L 0 0 L 2 -1 L 2 1 " style="stroke:none"/>
		</g>
		<marker id="mrkr4-41" class="st8" v:arrowType="4" v:arrowSize="2" v:setback="4.52" refX="-4.52" orient="auto"
				markerUnits="strokeWidth" overflow="visible">
			<use xlink:href="#lend4" transform="scale(-2.26,-2.26) "/>
		</marker>
	</defs>
	<g v:mID="0" v:index="1" v:groupContext="foregroundPage">
		<v:userDefs>
			<v:ud v:nameU="msvThemeOrder" v:val="VT0(0):26"/>
		</v:userDefs>
		<title>Page-1</title>
		<v:pageProperties v:drawingScale="0.0393701" v:pageScale="0.0393701" v:drawingUnits="24" v:shadowOffsetX="8.50394"
				v:shadowOffsetY="-8.50394"/>
		<v:layer v:name="Connector" v:index="0"/>
		<g id="shape113-1" v:mID="113" v:groupContext="shape" transform="translate(29.1276,-206.929)">
			<title>Rectangle.113</title>
			<v:userDefs>
				<v:ud v:nameU="visVersion" v:val="VT0(15):26"/>
			</v:userDefs>
			<rect x="0" y="377.008" width="161.092" height="218.268" class="st1"/>
		</g>
		<g id="shape87-3" v:mID="87" v:groupContext="shape" transform="translate(592.008,-262.65)">
			<title>Rectangle.87</title>
			<v:userDefs>
				<v:ud v:nameU="visVersion" v:val="VT0(15):26"/>
			</v:userDefs>
			<rect x="0" y="439.37" width="131.786" height="155.906" class="st1"/>
		</g>
		<g id="group41-5" transform="translate(606.182,-262.65)" v:mID="41" v:groupContext="group">
			<title>Sheet.41</title>
			<g id="group42-6" transform="translate(0,-49.677)" v:mID="42" v:groupContext="group">
				<title>Sheet.42</title>
				<g id="shape43-7" v:mID="43" v:groupContext="shape" transform="translate(0,-9.5417)">
					<title>Sheet.43</title>
					<path d="M66.21 595.28 L7.9 595.28 C3.54 595.28 0 591.73 0 587.4 L0 550.42 C0 546.06 3.54 542.52 7.9 542.52 L66.24
								 542.52 C70.59 542.52 74.13 546.06 74.13 550.42 L74.13 587.4 C74.11 591.73 70.57 595.28 66.21 595.28
								 ZM7.9 544.83 C4.82 544.83 2.32 547.34 2.32 550.42 L2.32 587.4 C2.32 590.48 4.82 592.98 7.9 592.98
								 L66.24 592.98 C69.32 592.98 71.82 590.48 71.82 587.4 L71.82 550.42 C71.82 547.34 69.32 544.83 66.24
								 544.83 L7.9 544.83 Z" class="st2"/>
				</g>
				<g id="shape44-9" v:mID="44" v:groupContext="shape" transform="translate(23.6458,0)">
					<title>Sheet.44</title>
					<rect x="0" y="592.96" width="26.8187" height="2.31595" class="st2"/>
				</g>
				<g id="shape45-11" v:mID="45" v:groupContext="shape" transform="translate(29.2967,0)">
					<title>Sheet.45</title>
					<path d="M15.52 595.28 L0 595.28 L0 584.58 L2.32 584.58 L2.32 592.96 L13.2 592.96 L13.2 585.11 L15.52 585.11
								 L15.52 595.28 Z" class="st2"/>
				</g>
			</g>
		</g>
		<g id="group77-13" transform="translate(29.1276,-206.631)" v:mID="77" v:groupContext="group">
			<title>Sheet.77</title>
			<g id="shape78-14" v:mID="78" v:groupContext="shape" transform="translate(15.1024,-73.0932)">
				<title>Sheet.78</title>
				<path d="M94.39 469.94 L72.99 524.57 L72.99 518.18 L36.5 497.12 L0 518.18 L0 559.07 L36.5 580.14 L41.34 577.34 C44.46
							 587.7 54.08 595.28 65.44 595.28 C75.25 595.28 83.74 589.63 87.9 581.42 L94.39 585.17 L131.19 563.93
							 L94.39 469.94 ZM95.65 480.06 L128.07 562.83 L95.65 581.54 L95.65 480.06 ZM93.13 480.07 L93.13 581.54
							 L88.94 579.13 C89.04 578.88 89.1 578.64 89.18 578.39 C89.32 578.01 89.45 577.62 89.57 577.22 C89.69
							 576.82 89.79 576.41 89.89 576 C89.97 575.64 90.07 575.29 90.14 574.93 C90.24 574.43 90.3 573.92 90.37
							 573.41 C90.41 573.12 90.46 572.85 90.49 572.55 C90.57 571.74 90.61 570.93 90.61 570.1 C90.61 569.32
							 90.57 568.55 90.5 567.78 C90.47 567.5 90.43 567.22 90.39 566.94 C90.33 566.47 90.26 566.01 90.18 565.55
							 C90.11 565.2 90.04 564.86 89.97 564.53 C89.88 564.16 89.79 563.79 89.69 563.42 C89.58 563.04 89.47 562.66
							 89.35 562.29 C89.27 562.04 89.18 561.81 89.09 561.57 C88.74 560.61 88.35 559.69 87.89 558.79 C87.85
							 558.7 87.81 558.62 87.77 558.53 C87.52 558.06 87.26 557.6 86.98 557.15 C86.89 557 86.8 556.85 86.71
							 556.7 C86.42 556.25 86.13 555.81 85.82 555.39 C85.73 555.27 85.64 555.15 85.55 555.03 C82.42 550.87
							 78.06 547.7 72.99 546.1 L72.99 531.48 L93.13 480.07 ZM36.5 500.02 L68.86 518.7 L36.5 537.39 L4.14 518.7
							 L36.5 500.02 ZM2.52 520.67 L35.24 539.57 L35.24 576.51 L2.52 557.61 L2.52 520.67 ZM70.48 520.67 L70.48
							 545.44 C68.85 545.11 67.17 544.93 65.44 544.93 C51.56 544.93 40.27 556.23 40.27 570.1 C40.27 570.89
							 40.32 571.67 40.4 572.47 C40.47 573.25 40.58 574.03 40.73 574.79 L37.76 576.51 L37.76 539.57 L70.48
							 520.67 ZM65.44 547.45 C66.38 547.45 67.33 547.52 68.28 547.65 C68.39 547.66 68.5 547.68 68.61 547.7
							 C69.44 547.82 70.27 548 71.11 548.21 L71.4 548.29 C75.67 549.45 79.38 551.81 82.21 554.92 C82.25 554.97
							 82.28 555.01 82.32 555.05 C82.69 555.46 83.04 555.89 83.38 556.33 C83.43 556.39 83.47 556.45 83.52 556.51
							 C84.85 558.27 85.92 560.24 86.69 562.33 C86.77 562.54 86.85 562.74 86.92 562.95 C87.04 563.32 87.15
							 563.69 87.25 564.06 C87.34 564.37 87.42 564.68 87.49 565 C87.57 565.32 87.64 565.65 87.7 565.98 C87.78
							 566.39 87.84 566.8 87.89 567.21 C87.93 567.47 87.96 567.74 87.99 568 C88.05 568.69 88.1 569.39 88.1
							 570.1 C88.1 570.89 88.06 571.66 87.98 572.43 C87.97 572.51 87.95 572.59 87.94 572.67 C87.87 573.35 87.77
							 574.04 87.63 574.72 C87.61 574.78 87.59 574.84 87.58 574.91 C87.43 575.59 87.25 576.28 87.04 576.95
							 C87.01 577.03 86.97 577.11 86.95 577.19 C86.74 577.83 86.5 578.47 86.23 579.09 C82.75 587.12 74.74 592.76
							 65.44 592.76 C54.67 592.76 45.65 585.2 43.37 575.11 C42.99 573.41 42.79 571.73 42.79 570.1 C42.79 557.61
							 52.95 547.45 65.44 547.45 Z" class="st3"/>
			</g>
		</g>
		<g id="shape85-16" v:mID="85" v:groupContext="shape" transform="translate(577.355,-259.321)">
			<title>Rectangle</title>
			<desc>Control Program</desc>
			<v:userDefs>
				<v:ud v:nameU="visVersion" v:val="VT0(15):26"/>
			</v:userDefs>
			<v:textBlock v:margins="rect(4,4,4,4)" v:tabSpace="42.5197"/>
			<v:textRect cx="65.893" cy="578.815" width="131.79" height="32.9221"/>
			<rect x="0" y="562.354" width="131.786" height="32.9221" class="st4"/>
			<text x="14.59" y="583.01" class="st5" v:langID="1033"><v:paragraph v:horizAlign="1"/><v:tabList/>Control Program</text>		</g>
		<g id="group86-19" transform="translate(279.752,-382.677)" v:mID="86" v:groupContext="group">
			<title>Sheet.86</title>
			<g id="shape82-20" v:mID="82" v:groupContext="shape" transform="translate(6.39488E-14,-20.9133)">
				<title>Rectangle.82</title>
				<v:userDefs>
					<v:ud v:nameU="visVersion" v:val="VT0(15):26"/>
				</v:userDefs>
				<rect x="0" y="474.457" width="161.092" height="120.819" class="st1"/>
			</g>
			<g id="group8-22" transform="translate(23.8531,0)" v:mID="8" v:groupContext="group">
				<v:userDefs/>
				<title>Microsoft Hololens</title>
				<desc>Created with Sketch.</desc>
				<g id="group9-23" transform="translate(5.34959,-59.2646)" v:mID="9" v:groupContext="group">
					<title>Sheet.9</title>
					<g id="shape10-24" v:mID="10" v:groupContext="shape" transform="translate(52.4821,-17.9037)">
						<title>Sheet.10</title>
						<path d="M45.59 586.21 C45.14 585.83 44.45 585.37 43.57 584.86 C41.48 583.66 38.54 582.34 34.98 581.07 C25.82
									 577.8 13.95 575.25 0 573.96 L0.21 571.7 C14.34 573.01 26.4 575.6 35.74 578.94 C43.21 581.61
									 48.18 584.46 48.18 586.3 L48.18 595.28 L45.92 595.28 L45.92 586.52 C45.84 586.44 45.73 586.33
									 45.59 586.21 Z" class="st6"/>
					</g>
					<g id="shape11-26" v:mID="11" v:groupContext="shape">
						<title>Sheet.11</title>
						<path d="M2.81 562.84 C2.28 567.95 2.59 573.1 4.4 578.87 C5.78 583.25 7.5 586.92 9.27 589.44 C10.71 591.51
									 12.02 592.52 12.54 592.42 C12.73 592.38 12.93 592.34 13.17 592.3 C13.33 592.28 13.49 592.25
									 13.79 592.2 C14.93 592.02 15.45 591.9 15.8 591.73 C16 591.64 15.96 591.7 15.94 591.59 C15.46
									 589.13 15.74 587.64 17.45 587.67 C18.29 587.68 18.87 588.08 20.34 589.28 C21.38 590.14 21.91
									 590.51 21.91 590.51 C24.34 590.51 30.32 589.79 36.25 588.53 C36.45 588.49 37.69 588.22 38.05
									 588.15 C38.72 588 39.27 587.89 39.78 587.77 C46.57 586.29 49.61 585.1 50.19 583.58 C50.36 583.14
									 50.95 581.63 51 581.49 C52.14 578.53 52.75 576.49 53.1 573.93 C53.77 569.12 53.89 564.45 53.5
									 560.82 C53.32 559.19 53.05 557.85 52.72 556.94 C52.57 556.53 52.42 556.23 52.28 556.05 C38.49
									 554.72 25.98 555.31 15.66 557.25 C11.71 557.99 8.32 558.9 5.82 559.82 C4.77 560.21 3.93 560.58
									 3.37 560.89 C3.22 560.98 3.09 561.06 3 561.13 C2.94 561.65 2.84 562.54 2.81 562.84 ZM52.3 556
									 C52.32 556 52.35 556 52.39 556.01 C52.37 556.01 52.34 556 52.32 556 L52.3 556 ZM18.16 591.13
									 C18.42 592.33 17.86 593.26 16.78 593.78 C16.15 594.08 15.53 594.22 14.15 594.44 C13.84 594.49
									 13.7 594.52 13.54 594.54 C13.32 594.58 13.14 594.61 12.97 594.64 C9.67 595.28 5.16 588.85 2.24
									 579.55 C0.32 573.45 0 568 0.55 562.61 C0.6 562.16 0.76 560.8 0.77 560.64 C0.88 558.81 6.92 556.58
									 15.24 555.02 C25.79 553.04 38.53 552.44 52.67 553.76 C55.78 554.24 56.8 563.8 55.35 574.24 C54.96
									 577.01 54.32 579.2 53.12 582.31 C53.06 582.45 52.47 583.96 52.31 584.39 C51.31 587.01 48.03
									 588.29 40.27 589.99 C39.75 590.1 39.2 590.22 38.52 590.37 C38.16 590.44 36.92 590.7 36.72 590.75
									 C30.65 592.04 24.51 592.78 21.91 592.78 C21.08 592.78 20.65 592.48 18.98 591.1 C18.56 590.75
									 18.26 590.53 18.03 590.35 C18.06 590.58 18.1 590.84 18.16 591.13 Z" class="st6"/>
					</g>
					<g id="shape12-28" v:mID="12" v:groupContext="shape" transform="translate(0.321918,-29.2516)">
						<title>Sheet.12</title>
						<path d="M2.26 594.86 L0 594.72 C0.12 592.84 6.42 590.52 15.08 588.9 C26.09 586.83 39.39 586.2 54.08 587.57
									 L53.87 589.83 C39.39 588.48 26.3 589.1 15.5 591.13 C11.37 591.9 7.82 592.84 5.21 593.81 C4.11
									 594.21 3.23 594.6 2.64 594.94 C2.4 595.07 2.23 595.19 2.13 595.28 C2.18 595.23 2.25 595.14 2.26
									 594.86 Z" class="st6"/>
					</g>
					<g id="shape13-30" v:mID="13" v:groupContext="shape" transform="translate(49.514,-8.79309)">
						<title>Sheet.13</title>
						<path d="M48.15 587.48 C48.66 587.11 49.37 587.22 49.74 587.72 C50.11 588.23 50 588.94 49.5 589.31 C45.84
									 592 36.68 593.77 21.79 594.74 C15.95 595.12 7.82 595.28 1.12 595.12 C0.5 595.1 0 594.58 0.01
									 593.95 C0.03 593.33 0.55 592.83 1.18 592.85 C7.81 593.01 15.87 592.86 21.65 592.48 C36.08 591.53
									 44.99 589.82 48.15 587.48 Z" class="st6"/>
					</g>
					<g id="shape14-32" v:mID="14" v:groupContext="shape" transform="translate(54.8885,-14.8794)">
						<title>Sheet.14</title>
						<path d="M0 582.88 L0.16 580.62 C9.66 581.28 18.37 582.28 26.28 583.64 C37.11 585.49 45.29 588.63 45.78 592.02
									 C45.94 593.14 45.4 594.22 44.27 595.28 L42.72 593.62 C43.36 593.03 43.57 592.6 43.53 592.34
									 C43.27 590.5 35.49 587.51 25.9 585.87 C18.06 584.53 9.43 583.54 0 582.88 Z" class="st6"/>
					</g>
					<g id="shape15-34" v:mID="15" v:groupContext="shape" transform="translate(54.1993,-19.5604)">
						<title>Sheet.15</title>
						<path d="M0 593.97 L0.71 591.81 C1.68 592.13 7.7 592.3 13.35 592.04 C20.8 591.7 26.99 590.75 30.28 589.21
									 L31.24 591.27 C24.69 594.32 3.96 595.28 0 593.97 Z" class="st6"/>
					</g>
				</g>
			</g>
		</g>
		<g id="shape88-36" v:mID="88" v:groupContext="shape" v:layerMember="0" transform="translate(592.008,-367.924)">
			<title>Dynamic connector</title>
			<path d="M0 595.28 L-142.81 536.06" class="st7"/>
		</g>
		<g id="group89-42" transform="translate(279.752,-259.321)" v:mID="89" v:groupContext="group">
			<title>Sheet.89</title>
			<g id="shape90-43" v:mID="90" v:groupContext="shape" transform="translate(6.39488E-14,-20.9133)">
				<title>Rectangle.82</title>
				<v:userDefs>
					<v:ud v:nameU="visVersion" v:val="VT0(15):26"/>
				</v:userDefs>
				<rect x="0" y="474.457" width="161.092" height="120.819" class="st1"/>
			</g>
			<g id="group91-45" transform="translate(23.8531,0)" v:mID="91" v:groupContext="group">
				<v:userDefs/>
				<title>Microsoft Hololens</title>
				<desc>Created with Sketch.</desc>
				<g id="group92-46" transform="translate(5.34959,-59.2646)" v:mID="92" v:groupContext="group">
					<title>Sheet.92</title>
					<g id="shape93-47" v:mID="93" v:groupContext="shape" transform="translate(52.4821,-17.9037)">
						<title>Sheet.93</title>
						<path d="M45.59 586.21 C45.14 585.83 44.45 585.37 43.57 584.86 C41.48 583.66 38.54 582.34 34.98 581.07 C25.82
									 577.8 13.95 575.25 0 573.96 L0.21 571.7 C14.34 573.01 26.4 575.6 35.74 578.94 C43.21 581.61
									 48.18 584.46 48.18 586.3 L48.18 595.28 L45.92 595.28 L45.92 586.52 C45.84 586.44 45.73 586.33
									 45.59 586.21 Z" class="st6"/>
					</g>
					<g id="shape94-49" v:mID="94" v:groupContext="shape">
						<title>Sheet.94</title>
						<path d="M2.81 562.84 C2.28 567.95 2.59 573.1 4.4 578.87 C5.78 583.25 7.5 586.92 9.27 589.44 C10.71 591.51
									 12.02 592.52 12.54 592.42 C12.73 592.38 12.93 592.34 13.17 592.3 C13.33 592.28 13.49 592.25
									 13.79 592.2 C14.93 592.02 15.45 591.9 15.8 591.73 C16 591.64 15.96 591.7 15.94 591.59 C15.46
									 589.13 15.74 587.64 17.45 587.67 C18.29 587.68 18.87 588.08 20.34 589.28 C21.38 590.14 21.91
									 590.51 21.91 590.51 C24.34 590.51 30.32 589.79 36.25 588.53 C36.45 588.49 37.69 588.22 38.05
									 588.15 C38.72 588 39.27 587.89 39.78 587.77 C46.57 586.29 49.61 585.1 50.19 583.58 C50.36 583.14
									 50.95 581.63 51 581.49 C52.14 578.53 52.75 576.49 53.1 573.93 C53.77 569.12 53.89 564.45 53.5
									 560.82 C53.32 559.19 53.05 557.85 52.72 556.94 C52.57 556.53 52.42 556.23 52.28 556.05 C38.49
									 554.72 25.98 555.31 15.66 557.25 C11.71 557.99 8.32 558.9 5.82 559.82 C4.77 560.21 3.93 560.58
									 3.37 560.89 C3.22 560.98 3.09 561.06 3 561.13 C2.94 561.65 2.84 562.54 2.81 562.84 ZM52.3 556
									 C52.32 556 52.35 556 52.39 556.01 C52.37 556.01 52.34 556 52.32 556 L52.3 556 ZM18.16 591.13
									 C18.42 592.33 17.86 593.26 16.78 593.78 C16.15 594.08 15.53 594.22 14.15 594.44 C13.84 594.49
									 13.7 594.52 13.54 594.54 C13.32 594.58 13.14 594.61 12.97 594.64 C9.67 595.28 5.16 588.85 2.24
									 579.55 C0.32 573.45 0 568 0.55 562.61 C0.6 562.16 0.76 560.8 0.77 560.64 C0.88 558.81 6.92 556.58
									 15.24 555.02 C25.79 553.04 38.53 552.44 52.67 553.76 C55.78 554.24 56.8 563.8 55.35 574.24 C54.96
									 577.01 54.32 579.2 53.12 582.31 C53.06 582.45 52.47 583.96 52.31 584.39 C51.31 587.01 48.03
									 588.29 40.27 589.99 C39.75 590.1 39.2 590.22 38.52 590.37 C38.16 590.44 36.92 590.7 36.72 590.75
									 C30.65 592.04 24.51 592.78 21.91 592.78 C21.08 592.78 20.65 592.48 18.98 591.1 C18.56 590.75
									 18.26 590.53 18.03 590.35 C18.06 590.58 18.1 590.84 18.16 591.13 Z" class="st6"/>
					</g>
					<g id="shape95-51" v:mID="95" v:groupContext="shape" transform="translate(0.321918,-29.2516)">
						<title>Sheet.95</title>
						<path d="M2.26 594.86 L0 594.72 C0.12 592.84 6.42 590.52 15.08 588.9 C26.09 586.83 39.39 586.2 54.08 587.57
									 L53.87 589.83 C39.39 588.48 26.3 589.1 15.5 591.13 C11.37 591.9 7.82 592.84 5.21 593.81 C4.11
									 594.21 3.23 594.6 2.64 594.94 C2.4 595.07 2.23 595.19 2.13 595.28 C2.18 595.23 2.25 595.14 2.26
									 594.86 Z" class="st6"/>
					</g>
					<g id="shape96-53" v:mID="96" v:groupContext="shape" transform="translate(49.514,-8.79309)">
						<title>Sheet.96</title>
						<path d="M48.15 587.48 C48.66 587.11 49.37 587.22 49.74 587.72 C50.11 588.23 50 588.94 49.5 589.31 C45.84
									 592 36.68 593.77 21.79 594.74 C15.95 595.12 7.82 595.28 1.12 595.12 C0.5 595.1 0 594.58 0.01
									 593.95 C0.03 593.33 0.55 592.83 1.18 592.85 C7.81 593.01 15.87 592.86 21.65 592.48 C36.08 591.53
									 44.99 589.82 48.15 587.48 Z" class="st6"/>
					</g>
					<g id="shape97-55" v:mID="97" v:groupContext="shape" transform="translate(54.8885,-14.8794)">
						<title>Sheet.97</title>
						<path d="M0 582.88 L0.16 580.62 C9.66 581.28 18.37 582.28 26.28 583.64 C37.11 585.49 45.29 588.63 45.78 592.02
									 C45.94 593.14 45.4 594.22 44.27 595.28 L42.72 593.62 C43.36 593.03 43.57 592.6 43.53 592.34
									 C43.27 590.5 35.49 587.51 25.9 585.87 C18.06 584.53 9.43 583.54 0 582.88 Z" class="st6"/>
					</g>
					<g id="shape98-57" v:mID="98" v:groupContext="shape" transform="translate(54.1993,-19.5604)">
						<title>Sheet.98</title>
						<path d="M0 593.97 L0.71 591.81 C1.68 592.13 7.7 592.3 13.35 592.04 C20.8 591.7 26.99 590.75 30.28 589.21
									 L31.24 591.27 C24.69 594.32 3.96 595.28 0 593.97 Z" class="st6"/>
					</g>
				</g>
			</g>
		</g>
		<g id="group99-59" transform="translate(279.752,-134.273)" v:mID="99" v:groupContext="group">
			<title>Sheet.99</title>
			<g id="shape100-60" v:mID="100" v:groupContext="shape" transform="translate(6.39488E-14,-20.9133)">
				<title>Rectangle.82</title>
				<v:userDefs>
					<v:ud v:nameU="visVersion" v:val="VT0(15):26"/>
				</v:userDefs>
				<rect x="0" y="474.457" width="161.092" height="120.819" class="st1"/>
			</g>
			<g id="group101-62" transform="translate(23.8531,0)" v:mID="101" v:groupContext="group">
				<v:userDefs/>
				<title>Microsoft Hololens</title>
				<desc>Created with Sketch.</desc>
				<g id="group102-63" transform="translate(5.34959,-59.2646)" v:mID="102" v:groupContext="group">
					<title>Sheet.102</title>
					<g id="shape103-64" v:mID="103" v:groupContext="shape" transform="translate(52.4821,-17.9037)">
						<title>Sheet.103</title>
						<path d="M45.59 586.21 C45.14 585.83 44.45 585.37 43.57 584.86 C41.48 583.66 38.54 582.34 34.98 581.07 C25.82
									 577.8 13.95 575.25 0 573.96 L0.21 571.7 C14.34 573.01 26.4 575.6 35.74 578.94 C43.21 581.61
									 48.18 584.46 48.18 586.3 L48.18 595.28 L45.92 595.28 L45.92 586.52 C45.84 586.44 45.73 586.33
									 45.59 586.21 Z" class="st6"/>
					</g>
					<g id="shape104-66" v:mID="104" v:groupContext="shape">
						<title>Sheet.104</title>
						<path d="M2.81 562.84 C2.28 567.95 2.59 573.1 4.4 578.87 C5.78 583.25 7.5 586.92 9.27 589.44 C10.71 591.51
									 12.02 592.52 12.54 592.42 C12.73 592.38 12.93 592.34 13.17 592.3 C13.33 592.28 13.49 592.25
									 13.79 592.2 C14.93 592.02 15.45 591.9 15.8 591.73 C16 591.64 15.96 591.7 15.94 591.59 C15.46
									 589.13 15.74 587.64 17.45 587.67 C18.29 587.68 18.87 588.08 20.34 589.28 C21.38 590.14 21.91
									 590.51 21.91 590.51 C24.34 590.51 30.32 589.79 36.25 588.53 C36.45 588.49 37.69 588.22 38.05
									 588.15 C38.72 588 39.27 587.89 39.78 587.77 C46.57 586.29 49.61 585.1 50.19 583.58 C50.36 583.14
									 50.95 581.63 51 581.49 C52.14 578.53 52.75 576.49 53.1 573.93 C53.77 569.12 53.89 564.45 53.5
									 560.82 C53.32 559.19 53.05 557.85 52.72 556.94 C52.57 556.53 52.42 556.23 52.28 556.05 C38.49
									 554.72 25.98 555.31 15.66 557.25 C11.71 557.99 8.32 558.9 5.82 559.82 C4.77 560.21 3.93 560.58
									 3.37 560.89 C3.22 560.98 3.09 561.06 3 561.13 C2.94 561.65 2.84 562.54 2.81 562.84 ZM52.3 556
									 C52.32 556 52.35 556 52.39 556.01 C52.37 556.01 52.34 556 52.32 556 L52.3 556 ZM18.16 591.13
									 C18.42 592.33 17.86 593.26 16.78 593.78 C16.15 594.08 15.53 594.22 14.15 594.44 C13.84 594.49
									 13.7 594.52 13.54 594.54 C13.32 594.58 13.14 594.61 12.97 594.64 C9.67 595.28 5.16 588.85 2.24
									 579.55 C0.32 573.45 0 568 0.55 562.61 C0.6 562.16 0.76 560.8 0.77 560.64 C0.88 558.81 6.92 556.58
									 15.24 555.02 C25.79 553.04 38.53 552.44 52.67 553.76 C55.78 554.24 56.8 563.8 55.35 574.24 C54.96
									 577.01 54.32 579.2 53.12 582.31 C53.06 582.45 52.47 583.96 52.31 584.39 C51.31 587.01 48.03
									 588.29 40.27 589.99 C39.75 590.1 39.2 590.22 38.52 590.37 C38.16 590.44 36.92 590.7 36.72 590.75
									 C30.65 592.04 24.51 592.78 21.91 592.78 C21.08 592.78 20.65 592.48 18.98 591.1 C18.56 590.75
									 18.26 590.53 18.03 590.35 C18.06 590.58 18.1 590.84 18.16 591.13 Z" class="st6"/>
					</g>
					<g id="shape105-68" v:mID="105" v:groupContext="shape" transform="translate(0.321918,-29.2516)">
						<title>Sheet.105</title>
						<path d="M2.26 594.86 L0 594.72 C0.12 592.84 6.42 590.52 15.08 588.9 C26.09 586.83 39.39 586.2 54.08 587.57
									 L53.87 589.83 C39.39 588.48 26.3 589.1 15.5 591.13 C11.37 591.9 7.82 592.84 5.21 593.81 C4.11
									 594.21 3.23 594.6 2.64 594.94 C2.4 595.07 2.23 595.19 2.13 595.28 C2.18 595.23 2.25 595.14 2.26
									 594.86 Z" class="st6"/>
					</g>
					<g id="shape106-70" v:mID="106" v:groupContext="shape" transform="translate(49.514,-8.79309)">
						<title>Sheet.106</title>
						<path d="M48.15 587.48 C48.66 587.11 49.37 587.22 49.74 587.72 C50.11 588.23 50 588.94 49.5 589.31 C45.84
									 592 36.68 593.77 21.79 594.74 C15.95 595.12 7.82 595.28 1.12 595.12 C0.5 595.1 0 594.58 0.01
									 593.95 C0.03 593.33 0.55 592.83 1.18 592.85 C7.81 593.01 15.87 592.86 21.65 592.48 C36.08 591.53
									 44.99 589.82 48.15 587.48 Z" class="st6"/>
					</g>
					<g id="shape107-72" v:mID="107" v:groupContext="shape" transform="translate(54.8885,-14.8794)">
						<title>Sheet.107</title>
						<path d="M0 582.88 L0.16 580.62 C9.66 581.28 18.37 582.28 26.28 583.64 C37.11 585.49 45.29 588.63 45.78 592.02
									 C45.94 593.14 45.4 594.22 44.27 595.28 L42.72 593.62 C43.36 593.03 43.57 592.6 43.53 592.34
									 C43.27 590.5 35.49 587.51 25.9 585.87 C18.06 584.53 9.43 583.54 0 582.88 Z" class="st6"/>
					</g>
					<g id="shape108-74" v:mID="108" v:groupContext="shape" transform="translate(54.1993,-19.5604)">
						<title>Sheet.108</title>
						<path d="M0 593.97 L0.71 591.81 C1.68 592.13 7.7 592.3 13.35 592.04 C20.8 591.7 26.99 590.75 30.28 589.21
									 L31.24 591.27 C24.69 594.32 3.96 595.28 0 593.97 Z" class="st6"/>
					</g>
				</g>
			</g>
		</g>
		<g id="shape109-76" v:mID="109" v:groupContext="shape" v:layerMember="0" transform="translate(592.008,-333.535)">
			<title>Dynamic connector.109</title>
			<path d="M0 588.2 L-142.12 588.18" class="st7"/>
		</g>
		<g id="shape110-81" v:mID="110" v:groupContext="shape" v:layerMember="0" transform="translate(592.008,-312.924)">
			<title>Dynamic connector.110</title>
			<path d="M0 595.28 L-142.83 655.27" class="st7"/>
		</g>
		<g id="shape111-86" v:mID="111" v:groupContext="shape" transform="translate(448.409,-429.37)">
			<title>Sheet.111</title>
			<desc>Spawn Msg</desc>
			<v:textBlock v:margins="rect(4,4,4,4)" v:tabSpace="42.5197"/>
			<v:textRect cx="76" cy="585.276" width="152.01" height="20"/>
			<rect x="0" y="575.276" width="152" height="20" class="st9"/>
			<text x="39.51" y="589.48" class="st5" v:langID="1033"><v:paragraph v:horizAlign="1"/><v:tabList/>Spawn Msg</text>		</g>
		<g id="shape112-89" v:mID="112" v:groupContext="shape" transform="translate(43.7806,-236.369)">
			<title>Rectangle.112</title>
			<desc>Virtual Effect</desc>
			<v:userDefs>
				<v:ud v:nameU="visVersion" v:val="VT0(15):26"/>
			</v:userDefs>
			<v:textBlock v:margins="rect(4,4,4,4)" v:tabSpace="42.5197"/>
			<v:textRect cx="65.893" cy="578.815" width="131.79" height="32.9221"/>
			<rect x="0" y="562.354" width="131.786" height="32.9221" class="st4"/>
			<text x="26.21" y="583.01" class="st5" v:langID="1033"><v:paragraph v:horizAlign="1"/><v:tabList/>Virtual Effect</text>		</g>
		<g id="shape114-92" v:mID="114" v:groupContext="shape" v:layerMember="0" transform="translate(314.897,-448.828)">
			<title>Dynamic connector.114</title>
			<path d="M0 595.28 L-124.68 675.93" class="st10"/>
		</g>
		<g id="shape115-95" v:mID="115" v:groupContext="shape" v:layerMember="0" transform="translate(310.398,-337.936)">
			<title>Dynamic connector.115</title>
			<path d="M0 596.04 L-120.18 608.68" class="st10"/>
		</g>
		<g id="shape116-98" v:mID="116" v:groupContext="shape" v:layerMember="0" transform="translate(309.625,-227.269)">
			<title>Dynamic connector.116</title>
			<path d="M0 595.28 L-119.41 542.25" class="st10"/>
		</g>
	</g>
</svg>
