<?xml version="1.0" encoding="UTF-8" standalone="no"?>
<!DOCTYPE svg PUBLIC "-//W3C//DTD SVG 1.1//EN" "http://www.w3.org/Graphics/SVG/1.1/DTD/svg11.dtd">
<!-- Generated by Microsoft Visio, SVG Export MR-Theater-design3.svg Page-1 -->
<svg xmlns="http://www.w3.org/2000/svg" xmlns:xlink="http://www.w3.org/1999/xlink" xmlns:ev="http://www.w3.org/2001/xml-events"
		xmlns:v="http://schemas.microsoft.com/visio/2003/SVGExtensions/" width="6.30333in" height="2.3793in"
		viewBox="0 0 453.84 171.31" xml:space="preserve" color-interpolation-filters="sRGB" class="st8">
	<v:documentProperties v:langID="1033" v:metric="true" v:viewMarkup="false">
		<v:userDefs>
			<v:ud v:nameU="msvSubprocessMaster" v:prompt="" v:val="VT4(Rectangle)"/>
			<v:ud v:nameU="msvNoAutoConnect" v:val="VT0(1):26"/>
		</v:userDefs>
	</v:documentProperties>

	<style type="text/css">
	<![CDATA[
		.st1 {fill:#ffffff;stroke:none;stroke-linecap:round;stroke-linejoin:round;stroke-width:0.75}
		.st2 {fill:#000000;stroke:none;stroke-linecap:butt;stroke-width:7.65}
		.st3 {stroke:#000000;stroke-dasharray:14,10;stroke-linecap:round;stroke-linejoin:round;stroke-width:2}
		.st4 {fill:#ffffff;stroke:#000000;stroke-linecap:round;stroke-linejoin:round;stroke-width:2}
		.st5 {fill:#000000;font-family:Microsoft Sans Serif;font-size:1.5em}
		.st6 {fill:none;stroke:none;stroke-linecap:round;stroke-linejoin:round;stroke-width:0.75}
		.st7 {fill:#000000;stroke:none;stroke-linecap:butt;stroke-width:6.12}
		.st8 {fill:none;fill-rule:evenodd;font-size:12px;overflow:visible;stroke-linecap:square;stroke-miterlimit:3}
	]]>
	</style>

	<g v:mID="0" v:index="1" v:groupContext="foregroundPage">
		<v:userDefs>
			<v:ud v:nameU="msvThemeOrder" v:val="VT0(0):26"/>
		</v:userDefs>
		<title>Page-1</title>
		<v:pageProperties v:drawingScale="0.0393701" v:pageScale="0.0393701" v:drawingUnits="24" v:shadowOffsetX="8.50394"
				v:shadowOffsetY="-8.50394"/>
		<v:layer v:name="Connector" v:index="0"/>
		<g id="shape174-1" v:mID="174" v:groupContext="shape" transform="translate(18.375,-57.6929)">
			<title>Rectangle.113</title>
			<v:userDefs>
				<v:ud v:nameU="visVersion" v:val="VT0(15):26"/>
			</v:userDefs>
			<rect x="0" y="82.0185" width="161.092" height="89.2913" class="st1"/>
		</g>
		<g id="shape168-3" v:mID="168" v:groupContext="shape" transform="translate(49.9058,-67.5205)">
			<title>Rectangle.168</title>
			<v:userDefs>
				<v:ud v:nameU="visVersion" v:val="VT0(15):26"/>
			</v:userDefs>
			<rect x="0" y="86.2705" width="70.7244" height="85.0394" class="st1"/>
		</g>
		<g id="group146-5" transform="translate(283.465,-63.6435)" v:mID="146" v:groupContext="group">
			<title>Sheet.146</title>
			<g id="shape147-6" v:mID="147" v:groupContext="shape">
				<title>Rectangle.82</title>
				<v:userDefs>
					<v:ud v:nameU="visVersion" v:val="VT0(15):26"/>
				</v:userDefs>
				<rect x="0" y="82.0185" width="152" height="89.2913" class="st1"/>
			</g>
			<g id="group148-8" transform="translate(29.3061,-24.9521)" v:mID="148" v:groupContext="group">
				<v:userDefs/>
				<title>Microsoft Hololens</title>
				<desc>Created with Sketch.</desc>
				<g id="group149-9" v:mID="149" v:groupContext="group">
					<title>Sheet.149</title>
					<g id="shape150-10" v:mID="150" v:groupContext="shape" transform="translate(53.343,-18.1974)">
						<title>Sheet.150</title>
						<path d="M46.33 162.09 C45.88 161.71 45.18 161.24 44.28 160.72 C42.16 159.5 39.17 158.17 35.55 156.88 C26.24
									 153.55 14.18 150.96 0 149.64 L0.21 147.34 C14.58 148.68 26.83 151.32 36.33 154.7 C43.92 157.42
									 48.97 160.32 48.97 162.19 L48.97 171.31 L46.67 171.31 L46.67 162.41 C46.6 162.33 46.48 162.22
									 46.33 162.09 Z" class="st2"/>
					</g>
					<g id="shape151-12" v:mID="151" v:groupContext="shape">
						<title>Sheet.151</title>
						<path d="M2.85 138.34 C2.32 143.53 2.63 148.77 4.48 154.64 C5.88 159.09 7.62 162.82 9.42 165.38 C10.89 167.48
									 12.22 168.5 12.75 168.4 C12.94 168.37 13.15 168.33 13.38 168.29 C13.55 168.26 13.71 168.24 14.02
									 168.19 C15.18 168 15.7 167.88 16.06 167.71 C16.26 167.62 16.22 167.68 16.2 167.56 C15.71 165.06
									 16 163.55 17.74 163.58 C18.59 163.59 19.18 163.99 20.67 165.22 C21.73 166.09 22.27 166.47 22.27
									 166.47 C24.74 166.47 30.82 165.73 36.85 164.45 C37.05 164.41 38.31 164.14 38.67 164.06 C39.36
									 163.92 39.91 163.8 40.43 163.69 C47.33 162.18 50.42 160.97 51.01 159.42 C51.18 158.98 51.78
									 157.44 51.84 157.3 C53 154.29 53.61 152.22 53.97 149.61 C54.66 144.73 54.77 139.98 54.38 136.29
									 C54.2 134.63 53.92 133.27 53.58 132.34 C53.43 131.93 53.28 131.63 53.14 131.44 C39.12 130.09
									 26.41 130.69 15.92 132.66 C11.91 133.41 8.46 134.33 5.91 135.27 C4.85 135.66 3.99 136.04 3.43
									 136.36 C3.27 136.45 3.14 136.54 3.05 136.6 C2.99 137.13 2.88 138.04 2.85 138.34 ZM53.16 131.39
									 C53.18 131.39 53.21 131.39 53.25 131.4 C53.22 131.4 53.2 131.39 53.18 131.39 L53.16 131.39 ZM18.46
									 167.1 C18.72 168.32 18.15 169.26 17.06 169.79 C16.42 170.09 15.78 170.24 14.39 170.46 C14.07
									 170.51 13.92 170.54 13.76 170.56 C13.54 170.6 13.36 170.63 13.18 170.67 C9.82 171.31 5.25 164.77
									 2.28 155.33 C0.32 149.13 0 143.58 0.56 138.11 C0.61 137.65 0.77 136.27 0.78 136.1 C0.9 134.24
									 7.03 131.98 15.49 130.4 C26.21 128.39 39.16 127.78 53.53 129.11 C56.69 129.6 57.74 139.32 56.26
									 149.93 C55.86 152.74 55.21 154.97 53.99 158.13 C53.93 158.28 53.33 159.81 53.17 160.24 C52.15
									 162.91 48.82 164.21 40.93 165.94 C40.4 166.05 39.84 166.17 39.15 166.32 C38.79 166.4 37.53 166.66
									 37.33 166.71 C31.15 168.02 24.91 168.77 22.27 168.77 C21.43 168.77 20.99 168.47 19.29 167.06
									 C18.86 166.71 18.56 166.48 18.33 166.31 C18.36 166.53 18.4 166.8 18.46 167.1 Z" class="st2"/>
					</g>
					<g id="shape152-14" v:mID="152" v:groupContext="shape" transform="translate(0.327199,-29.7315)">
						<title>Sheet.152</title>
						<path d="M2.3 170.88 L0 170.74 C0.12 168.84 6.53 166.48 15.32 164.83 C26.52 162.73 40.03 162.09 54.97 163.47
									 L54.76 165.77 C40.03 164.4 26.73 165.03 15.75 167.09 C11.56 167.88 7.95 168.84 5.29 169.82 C4.17
									 170.23 3.28 170.63 2.69 170.96 C2.44 171.1 2.26 171.23 2.17 171.31 C2.21 171.27 2.28 171.17
									 2.3 170.88 Z" class="st2"/>
					</g>
					<g id="shape153-16" v:mID="153" v:groupContext="shape" transform="translate(50.3262,-8.93733)">
						<title>Sheet.153</title>
						<path d="M48.94 163.39 C49.46 163.01 50.18 163.12 50.55 163.64 C50.93 164.15 50.82 164.87 50.31 165.25 C46.6
									 167.98 37.29 169.78 22.15 170.77 C16.21 171.16 7.95 171.31 1.14 171.15 C0.5 171.13 0 170.6 0.02
									 169.97 C0.03 169.33 0.56 168.83 1.19 168.84 C7.93 169 16.13 168.85 22 168.47 C36.67 167.51 45.72
									 165.76 48.94 163.39 Z" class="st2"/>
					</g>
					<g id="shape154-18" v:mID="154" v:groupContext="shape" transform="translate(55.7888,-15.1234)">
						<title>Sheet.154</title>
						<path d="M0 158.71 L0.16 156.42 C9.82 157.08 18.67 158.1 26.71 159.48 C37.72 161.36 46.03 164.55 46.53 168
									 C46.69 169.14 46.14 170.24 45 171.31 L43.42 169.63 C44.07 169.02 44.28 168.59 44.25 168.33 C43.98
									 166.45 36.08 163.42 26.32 161.75 C18.36 160.39 9.59 159.38 0 158.71 Z" class="st2"/>
					</g>
					<g id="shape155-20" v:mID="155" v:groupContext="shape" transform="translate(55.0884,-19.8813)">
						<title>Sheet.155</title>
						<path d="M0 169.98 L0.72 167.79 C1.71 168.12 7.82 168.29 13.57 168.02 C21.14 167.68 27.43 166.71 30.78 165.15
									 L31.75 167.24 C25.1 170.34 4.03 171.31 0 169.98 Z" class="st2"/>
					</g>
				</g>
			</g>
		</g>
		<g id="group166-22" transform="translate(49.9058,-63.2685)" v:mID="166" v:groupContext="group">
			<title>Sheet.166</title>
		</g>
		<g id="shape169-23" v:mID="169" v:groupContext="shape" v:layerMember="0" transform="translate(123.06,-101.697)">
			<title>Dynamic connector</title>
			<path d="M0 165.44 L190.65 163" class="st3"/>
		</g>
		<g id="shape170-26" v:mID="170" v:groupContext="shape" transform="translate(33.6946,-19)">
			<title>Rectangle.112</title>
			<desc>Image Target</desc>
			<v:userDefs>
				<v:ud v:nameU="visVersion" v:val="VT0(15):26"/>
			</v:userDefs>
			<v:textBlock v:margins="rect(4,4,4,4)" v:tabSpace="42.5197"/>
			<v:textRect cx="65.893" cy="154.849" width="131.79" height="32.9221"/>
			<rect x="0" y="138.388" width="131.786" height="32.9221" class="st4"/>
			<text x="12.48" y="160.25" class="st5" v:langID="1033"><v:paragraph v:horizAlign="1"/><v:tabList/>Image Target</text>		</g>
		<g id="shape173-29" v:mID="173" v:groupContext="shape" transform="translate(150.772,-127.838)">
			<title>Sheet.173</title>
			<desc>Scan</desc>
			<v:textBlock v:margins="rect(4,4,4,4)" v:tabSpace="42.5197"/>
			<v:textRect cx="76" cy="161.31" width="152.01" height="20"/>
			<rect x="0" y="151.31" width="152" height="20" class="st6"/>
			<text x="55.49" y="166.71" class="st5" v:langID="1033"><v:paragraph v:horizAlign="1"/><v:tabList/>Scan</text>		</g>
		<g id="group175-32" transform="translate(67.9737,-73.365)" v:mID="175" v:groupContext="group">
			<title>Sheet.175</title>
			<g id="shape176-33" v:mID="176" v:groupContext="shape" transform="translate(6.80841,-20.7347)">
				<title>Sheet.176</title>
				<path d="M0 124.27 L0 125.51 L0 170.07 L0 171.31 L1.24 171.31 L47.04 171.31 L48.28 171.31 L48.28 170.07 L48.28 125.51
							 L48.28 124.27 L47.04 124.27 L1.24 124.27 L0 124.27 ZM2.48 126.75 L45.8 126.75 L45.8 155.93 L38.01 148.14
							 C37.54 147.67 36.68 147.69 36.23 148.18 L28.43 156.51 L16.34 144.42 C16.08 144.17 15.7 144.04 15.34
							 144.08 C15.08 144.1 14.83 144.21 14.64 144.39 L2.48 155.49 L2.48 126.75 ZM27.85 131.7 C24.45 131.7 21.66
							 134.48 21.66 137.89 C21.66 141.29 24.45 144.08 27.85 144.08 C31.26 144.08 34.04 141.29 34.04 137.89
							 C34.04 134.48 31.26 131.7 27.85 131.7 ZM27.85 134.17 C29.92 134.17 31.57 135.82 31.57 137.89 C31.57
							 139.95 29.92 141.6 27.85 141.6 C25.79 141.6 24.14 139.95 24.14 137.89 C24.14 135.82 25.79 134.17 27.85
							 134.17 ZM15.43 147.02 L27.6 159.18 C28.07 159.65 28.93 159.63 29.38 159.14 L37.18 150.81 L45.8 159.43
							 L45.8 168.83 L2.48 168.83 L2.48 158.85 L15.43 147.02 Z" class="st7"/>
			</g>
		</g>
	</g>
</svg>
