<?xml version="1.0" encoding="UTF-8" standalone="no"?>
<!DOCTYPE svg PUBLIC "-//W3C//DTD SVG 1.1//EN" "http://www.w3.org/Graphics/SVG/1.1/DTD/svg11.dtd">
<!-- Generated by Microsoft Visio, SVG Export MR-Theater-design.svg Page-1 -->
<svg xmlns="http://www.w3.org/2000/svg" xmlns:xlink="http://www.w3.org/1999/xlink" xmlns:ev="http://www.w3.org/2001/xml-events"
		xmlns:v="http://schemas.microsoft.com/visio/2003/SVGExtensions/" width="11.712in" height="5.09703in"
		viewBox="0 0 843.265 366.986" xml:space="preserve" color-interpolation-filters="sRGB" class="st11">
	<v:documentProperties v:langID="1033" v:metric="true" v:viewMarkup="false">
		<v:userDefs>
			<v:ud v:nameU="msvSubprocessMaster" v:prompt="" v:val="VT4(Rectangle)"/>
			<v:ud v:nameU="msvNoAutoConnect" v:val="VT0(1):26"/>
		</v:userDefs>
	</v:documentProperties>

	<style type="text/css">
	<![CDATA[
		.st1 {fill:#ffffff;stroke:none;stroke-linecap:round;stroke-linejoin:round;stroke-width:0.75}
		.st2 {fill:#000000;stroke:none;stroke-linecap:butt;stroke-width:7.65}
		.st3 {fill:#000000;stroke:none;stroke-linecap:butt;stroke-width:19.125}
		.st4 {fill:#000000;stroke:none;stroke-linecap:butt;stroke-width:9.5625}
		.st5 {fill:#ffffff;stroke:#000000;stroke-linecap:round;stroke-linejoin:round;stroke-width:2}
		.st6 {fill:#000000;font-family:Microsoft Sans Serif;font-size:1.5em}
		.st7 {marker-end:url(#mrkr4-75);stroke:#000000;stroke-linecap:round;stroke-linejoin:round;stroke-width:2}
		.st8 {fill:#000000;fill-opacity:1;stroke:#000000;stroke-opacity:1;stroke-width:0.44247787610619}
		.st9 {fill:none;stroke:none;stroke-linecap:round;stroke-linejoin:round;stroke-width:0.75}
		.st10 {stroke:#000000;stroke-dasharray:14,10;stroke-linecap:round;stroke-linejoin:round;stroke-width:2}
		.st11 {fill:none;fill-rule:evenodd;font-size:12px;overflow:visible;stroke-linecap:square;stroke-miterlimit:3}
	]]>
	</style>

	<defs id="Markers">
		<g id="lend4">
			<path d="M 2 1 L 0 0 L 2 -1 L 2 1 " style="stroke:none"/>
		</g>
		<marker id="mrkr4-75" class="st8" v:arrowType="4" v:arrowSize="2" v:setback="4.52" refX="-4.52" orient="auto"
				markerUnits="strokeWidth" overflow="visible">
			<use xlink:href="#lend4" transform="scale(-2.26,-2.26) "/>
		</marker>
	</defs>
	<g v:mID="0" v:index="1" v:groupContext="foregroundPage">
		<v:userDefs>
			<v:ud v:nameU="msvThemeOrder" v:val="VT0(0):26"/>
		</v:userDefs>
		<title>Page-1</title>
		<v:pageProperties v:drawingScale="0.0393701" v:pageScale="0.0393701" v:drawingUnits="24" v:shadowOffsetX="8.50394"
				v:shadowOffsetY="-8.50394"/>
		<v:layer v:name="Connector" v:index="0"/>
		<g id="group146-1" transform="translate(340.532,-138.847)" v:mID="146" v:groupContext="group">
			<title>Sheet.146</title>
			<g id="shape147-2" v:mID="147" v:groupContext="shape">
				<title>Rectangle.82</title>
				<v:userDefs>
					<v:ud v:nameU="visVersion" v:val="VT0(15):26"/>
				</v:userDefs>
				<rect x="0" y="277.695" width="152" height="89.2913" class="st1"/>
			</g>
			<g id="group148-4" transform="translate(29.3061,-24.9521)" v:mID="148" v:groupContext="group">
				<v:userDefs/>
				<title>Microsoft Hololens</title>
				<desc>Created with Sketch.</desc>
				<g id="group149-5" v:mID="149" v:groupContext="group">
					<title>Sheet.149</title>
					<g id="shape150-6" v:mID="150" v:groupContext="shape" transform="translate(53.343,-18.1974)">
						<title>Sheet.150</title>
						<path d="M46.33 357.77 C45.88 357.39 45.18 356.91 44.28 356.4 C42.16 355.18 39.17 353.84 35.55 352.55 C26.24
									 349.23 14.18 346.63 0 345.32 L0.21 343.02 C14.58 344.35 26.83 346.99 36.33 350.38 C43.92 353.09
									 48.97 355.99 48.97 357.87 L48.97 366.99 L46.67 366.99 L46.67 358.09 C46.6 358.01 46.48 357.9
									 46.33 357.77 Z" class="st2"/>
					</g>
					<g id="shape151-8" v:mID="151" v:groupContext="shape">
						<title>Sheet.151</title>
						<path d="M2.85 334.02 C2.32 339.21 2.63 344.45 4.48 350.32 C5.88 354.77 7.62 358.5 9.42 361.06 C10.89 363.16
									 12.22 364.18 12.75 364.08 C12.94 364.04 13.15 364.01 13.38 363.97 C13.55 363.94 13.71 363.91
									 14.02 363.86 C15.18 363.68 15.7 363.56 16.06 363.39 C16.26 363.29 16.22 363.35 16.2 363.24 C15.71
									 360.74 16 359.23 17.74 359.26 C18.59 359.27 19.18 359.67 20.67 360.9 C21.73 361.77 22.27 362.14
									 22.27 362.14 C24.74 362.14 30.82 361.41 36.85 360.13 C37.05 360.09 38.31 359.82 38.67 359.74
									 C39.36 359.59 39.91 359.48 40.43 359.36 C47.33 357.85 50.42 356.65 51.01 355.1 C51.18 354.65
									 51.78 353.12 51.84 352.97 C53 349.97 53.61 347.89 53.97 345.29 C54.66 340.41 54.77 335.66 54.38
									 331.97 C54.2 330.31 53.92 328.95 53.58 328.02 C53.43 327.61 53.28 327.3 53.14 327.12 C39.12
									 325.77 26.41 326.37 15.92 328.34 C11.91 329.09 8.46 330.01 5.91 330.95 C4.85 331.34 3.99 331.72
									 3.43 332.04 C3.27 332.13 3.14 332.21 3.05 332.28 C2.99 332.81 2.88 333.72 2.85 334.02 ZM53.16
									 327.06 C53.18 327.06 53.21 327.07 53.25 327.07 C53.22 327.07 53.2 327.07 53.18 327.07 L53.16
									 327.06 ZM18.46 362.77 C18.72 363.99 18.15 364.94 17.06 365.46 C16.42 365.77 15.78 365.91 14.39
									 366.14 C14.07 366.19 13.92 366.21 13.76 366.24 C13.54 366.28 13.36 366.31 13.18 366.34 C9.82
									 366.99 5.25 360.45 2.28 351.01 C0.32 344.8 0 339.26 0.56 333.78 C0.61 333.33 0.77 331.94 0.78
									 331.78 C0.9 329.92 7.03 327.66 15.49 326.07 C26.21 324.06 39.16 323.45 53.53 324.79 C56.69 325.28
									 57.74 335 56.26 345.61 C55.86 348.42 55.21 350.65 53.99 353.8 C53.93 353.95 53.33 355.48 53.17
									 355.92 C52.15 358.59 48.82 359.89 40.93 361.61 C40.4 361.73 39.84 361.85 39.15 362 C38.79 362.07
									 37.53 362.34 37.33 362.38 C31.15 363.69 24.91 364.45 22.27 364.45 C21.43 364.45 20.99 364.15
									 19.29 362.74 C18.86 362.39 18.56 362.16 18.33 361.98 C18.36 362.21 18.4 362.47 18.46 362.77
									 Z" class="st2"/>
					</g>
					<g id="shape152-10" v:mID="152" v:groupContext="shape" transform="translate(0.327199,-29.7315)">
						<title>Sheet.152</title>
						<path d="M2.3 366.56 L0 366.42 C0.12 364.51 6.53 362.15 15.32 360.5 C26.52 358.4 40.03 357.77 54.97 359.15
									 L54.76 361.45 C40.03 360.08 26.73 360.71 15.75 362.77 C11.56 363.55 7.95 364.52 5.29 365.49
									 C4.17 365.91 3.28 366.3 2.69 366.64 C2.44 366.78 2.26 366.9 2.17 366.99 C2.21 366.94 2.28 366.84
									 2.3 366.56 Z" class="st2"/>
					</g>
					<g id="shape153-12" v:mID="153" v:groupContext="shape" transform="translate(50.3262,-8.93733)">
						<title>Sheet.153</title>
						<path d="M48.94 359.07 C49.46 358.69 50.18 358.8 50.55 359.31 C50.93 359.82 50.82 360.55 50.31 360.92 C46.6
									 363.66 37.29 365.45 22.15 366.44 C16.21 366.83 7.95 366.99 1.14 366.82 C0.5 366.81 0 366.28
									 0.02 365.64 C0.03 365.01 0.56 364.5 1.19 364.52 C7.93 364.68 16.13 364.53 22 364.14 C36.67 363.18
									 45.72 361.44 48.94 359.07 Z" class="st2"/>
					</g>
					<g id="shape154-14" v:mID="154" v:groupContext="shape" transform="translate(55.7888,-15.1234)">
						<title>Sheet.154</title>
						<path d="M0 354.39 L0.16 352.09 C9.82 352.76 18.67 353.78 26.71 355.16 C37.72 357.04 46.03 360.23 46.53 363.68
									 C46.69 364.82 46.14 365.92 45 366.99 L43.42 365.31 C44.07 364.7 44.28 364.27 44.25 364 C43.98
									 362.13 36.08 359.1 26.32 357.43 C18.36 356.07 9.59 355.05 0 354.39 Z" class="st2"/>
					</g>
					<g id="shape155-16" v:mID="155" v:groupContext="shape" transform="translate(55.0884,-19.8813)">
						<title>Sheet.155</title>
						<path d="M0 365.66 L0.72 363.47 C1.71 363.79 7.82 363.97 13.57 363.7 C21.14 363.35 27.43 362.38 30.78 360.82
									 L31.75 362.91 C25.1 366.02 4.03 366.99 0 365.66 Z" class="st2"/>
					</g>
				</g>
			</g>
		</g>
		<g id="group156-18" transform="translate(340.532,-18.375)" v:mID="156" v:groupContext="group">
			<title>Sheet.156</title>
			<g id="shape157-19" v:mID="157" v:groupContext="shape">
				<title>Rectangle.82</title>
				<v:userDefs>
					<v:ud v:nameU="visVersion" v:val="VT0(15):26"/>
				</v:userDefs>
				<rect x="0" y="277.695" width="152" height="89.2913" class="st1"/>
			</g>
			<g id="group158-21" transform="translate(29.3061,-24.9521)" v:mID="158" v:groupContext="group">
				<v:userDefs/>
				<title>Microsoft Hololens</title>
				<desc>Created with Sketch.</desc>
				<g id="group159-22" v:mID="159" v:groupContext="group">
					<title>Sheet.159</title>
					<g id="shape160-23" v:mID="160" v:groupContext="shape" transform="translate(53.343,-18.1974)">
						<title>Sheet.160</title>
						<path d="M46.33 357.77 C45.88 357.39 45.18 356.91 44.28 356.4 C42.16 355.18 39.17 353.84 35.55 352.55 C26.24
									 349.23 14.18 346.63 0 345.32 L0.21 343.02 C14.58 344.35 26.83 346.99 36.33 350.38 C43.92 353.09
									 48.97 355.99 48.97 357.87 L48.97 366.99 L46.67 366.99 L46.67 358.09 C46.6 358.01 46.48 357.9
									 46.33 357.77 Z" class="st2"/>
					</g>
					<g id="shape161-25" v:mID="161" v:groupContext="shape">
						<title>Sheet.161</title>
						<path d="M2.85 334.02 C2.32 339.21 2.63 344.45 4.48 350.32 C5.88 354.77 7.62 358.5 9.42 361.06 C10.89 363.16
									 12.22 364.18 12.75 364.08 C12.94 364.04 13.15 364.01 13.38 363.97 C13.55 363.94 13.71 363.91
									 14.02 363.86 C15.18 363.68 15.7 363.56 16.06 363.39 C16.26 363.29 16.22 363.35 16.2 363.24 C15.71
									 360.74 16 359.23 17.74 359.26 C18.59 359.27 19.18 359.67 20.67 360.9 C21.73 361.77 22.27 362.14
									 22.27 362.14 C24.74 362.14 30.82 361.41 36.85 360.13 C37.05 360.09 38.31 359.82 38.67 359.74
									 C39.36 359.59 39.91 359.48 40.43 359.36 C47.33 357.85 50.42 356.65 51.01 355.1 C51.18 354.65
									 51.78 353.12 51.84 352.97 C53 349.97 53.61 347.89 53.97 345.29 C54.66 340.41 54.77 335.66 54.38
									 331.97 C54.2 330.31 53.92 328.95 53.58 328.02 C53.43 327.61 53.28 327.3 53.14 327.12 C39.12
									 325.77 26.41 326.37 15.92 328.34 C11.91 329.09 8.46 330.01 5.91 330.95 C4.85 331.34 3.99 331.72
									 3.43 332.04 C3.27 332.13 3.14 332.21 3.05 332.28 C2.99 332.81 2.88 333.72 2.85 334.02 ZM53.16
									 327.06 C53.18 327.06 53.21 327.07 53.25 327.07 C53.22 327.07 53.2 327.07 53.18 327.07 L53.16
									 327.06 ZM18.46 362.77 C18.72 363.99 18.15 364.94 17.06 365.46 C16.42 365.77 15.78 365.91 14.39
									 366.14 C14.07 366.19 13.92 366.21 13.76 366.24 C13.54 366.28 13.36 366.31 13.18 366.34 C9.82
									 366.99 5.25 360.45 2.28 351.01 C0.32 344.8 0 339.26 0.56 333.78 C0.61 333.33 0.77 331.94 0.78
									 331.78 C0.9 329.92 7.03 327.66 15.49 326.07 C26.21 324.06 39.16 323.45 53.53 324.79 C56.69 325.28
									 57.74 335 56.26 345.61 C55.86 348.42 55.21 350.65 53.99 353.8 C53.93 353.95 53.33 355.48 53.17
									 355.92 C52.15 358.59 48.82 359.89 40.93 361.61 C40.4 361.73 39.84 361.85 39.15 362 C38.79 362.07
									 37.53 362.34 37.33 362.38 C31.15 363.69 24.91 364.45 22.27 364.45 C21.43 364.45 20.99 364.15
									 19.29 362.74 C18.86 362.39 18.56 362.16 18.33 361.98 C18.36 362.21 18.4 362.47 18.46 362.77
									 Z" class="st2"/>
					</g>
					<g id="shape162-27" v:mID="162" v:groupContext="shape" transform="translate(0.327199,-29.7315)">
						<title>Sheet.162</title>
						<path d="M2.3 366.56 L0 366.42 C0.12 364.51 6.53 362.15 15.32 360.5 C26.52 358.4 40.03 357.77 54.97 359.15
									 L54.76 361.45 C40.03 360.08 26.73 360.71 15.75 362.77 C11.56 363.55 7.95 364.52 5.29 365.49
									 C4.17 365.91 3.28 366.3 2.69 366.64 C2.44 366.78 2.26 366.9 2.17 366.99 C2.21 366.94 2.28 366.84
									 2.3 366.56 Z" class="st2"/>
					</g>
					<g id="shape163-29" v:mID="163" v:groupContext="shape" transform="translate(50.3262,-8.93733)">
						<title>Sheet.163</title>
						<path d="M48.94 359.07 C49.46 358.69 50.18 358.8 50.55 359.31 C50.93 359.82 50.82 360.55 50.31 360.92 C46.6
									 363.66 37.29 365.45 22.15 366.44 C16.21 366.83 7.95 366.99 1.14 366.82 C0.5 366.81 0 366.28
									 0.02 365.64 C0.03 365.01 0.56 364.5 1.19 364.52 C7.93 364.68 16.13 364.53 22 364.14 C36.67 363.18
									 45.72 361.44 48.94 359.07 Z" class="st2"/>
					</g>
					<g id="shape164-31" v:mID="164" v:groupContext="shape" transform="translate(55.7888,-15.1234)">
						<title>Sheet.164</title>
						<path d="M0 354.39 L0.16 352.09 C9.82 352.76 18.67 353.78 26.71 355.16 C37.72 357.04 46.03 360.23 46.53 363.68
									 C46.69 364.82 46.14 365.92 45 366.99 L43.42 365.31 C44.07 364.7 44.28 364.27 44.25 364 C43.98
									 362.13 36.08 359.1 26.32 357.43 C18.36 356.07 9.59 355.05 0 354.39 Z" class="st2"/>
					</g>
					<g id="shape165-33" v:mID="165" v:groupContext="shape" transform="translate(55.0884,-19.8813)">
						<title>Sheet.165</title>
						<path d="M0 365.66 L0.72 363.47 C1.71 363.79 7.82 363.97 13.57 363.7 C21.14 363.35 27.43 362.38 30.78 360.82
									 L31.75 362.91 C25.1 366.02 4.03 366.99 0 365.66 Z" class="st2"/>
					</g>
				</g>
			</g>
		</g>
		<g id="group145-35" transform="translate(340.532,-259.32)" v:mID="145" v:groupContext="group">
			<title>Sheet.145</title>
			<g id="shape82-36" v:mID="82" v:groupContext="shape">
				<title>Rectangle.82</title>
				<v:userDefs>
					<v:ud v:nameU="visVersion" v:val="VT0(15):26"/>
				</v:userDefs>
				<rect x="0" y="277.695" width="152" height="89.2913" class="st1"/>
			</g>
			<g id="group137-38" transform="translate(29.3061,-24.9521)" v:mID="137" v:groupContext="group">
				<v:userDefs/>
				<title>Microsoft Hololens</title>
				<desc>Created with Sketch.</desc>
				<g id="group138-39" v:mID="138" v:groupContext="group">
					<title>Sheet.138</title>
					<g id="shape139-40" v:mID="139" v:groupContext="shape" transform="translate(53.343,-18.1974)">
						<title>Sheet.139</title>
						<path d="M46.33 357.77 C45.88 357.39 45.18 356.91 44.28 356.4 C42.16 355.18 39.17 353.84 35.55 352.55 C26.24
									 349.23 14.18 346.63 0 345.32 L0.21 343.02 C14.58 344.35 26.83 346.99 36.33 350.38 C43.92 353.09
									 48.97 355.99 48.97 357.87 L48.97 366.99 L46.67 366.99 L46.67 358.09 C46.6 358.01 46.48 357.9
									 46.33 357.77 Z" class="st2"/>
					</g>
					<g id="shape140-42" v:mID="140" v:groupContext="shape">
						<title>Sheet.140</title>
						<path d="M2.85 334.02 C2.32 339.21 2.63 344.45 4.48 350.32 C5.88 354.77 7.62 358.5 9.42 361.06 C10.89 363.16
									 12.22 364.18 12.75 364.08 C12.94 364.04 13.15 364.01 13.38 363.97 C13.55 363.94 13.71 363.91
									 14.02 363.86 C15.18 363.68 15.7 363.56 16.06 363.39 C16.26 363.29 16.22 363.35 16.2 363.24 C15.71
									 360.74 16 359.23 17.74 359.26 C18.59 359.27 19.18 359.67 20.67 360.9 C21.73 361.77 22.27 362.14
									 22.27 362.14 C24.74 362.14 30.82 361.41 36.85 360.13 C37.05 360.09 38.31 359.82 38.67 359.74
									 C39.36 359.59 39.91 359.48 40.43 359.36 C47.33 357.85 50.42 356.65 51.01 355.1 C51.18 354.65
									 51.78 353.12 51.84 352.97 C53 349.97 53.61 347.89 53.97 345.29 C54.66 340.41 54.77 335.66 54.38
									 331.97 C54.2 330.31 53.92 328.95 53.58 328.02 C53.43 327.61 53.28 327.3 53.14 327.12 C39.12
									 325.77 26.41 326.37 15.92 328.34 C11.91 329.09 8.46 330.01 5.91 330.95 C4.85 331.34 3.99 331.72
									 3.43 332.04 C3.27 332.13 3.14 332.21 3.05 332.28 C2.99 332.81 2.88 333.72 2.85 334.02 ZM53.16
									 327.06 C53.18 327.06 53.21 327.07 53.25 327.07 C53.22 327.07 53.2 327.07 53.18 327.07 L53.16
									 327.06 ZM18.46 362.77 C18.72 363.99 18.15 364.94 17.06 365.46 C16.42 365.77 15.78 365.91 14.39
									 366.14 C14.07 366.19 13.92 366.21 13.76 366.24 C13.54 366.28 13.36 366.31 13.18 366.34 C9.82
									 366.99 5.25 360.45 2.28 351.01 C0.32 344.8 0 339.26 0.56 333.78 C0.61 333.33 0.77 331.94 0.78
									 331.78 C0.9 329.92 7.03 327.66 15.49 326.07 C26.21 324.06 39.16 323.45 53.53 324.79 C56.69 325.28
									 57.74 335 56.26 345.61 C55.86 348.42 55.21 350.65 53.99 353.8 C53.93 353.95 53.33 355.48 53.17
									 355.92 C52.15 358.59 48.82 359.89 40.93 361.61 C40.4 361.73 39.84 361.85 39.15 362 C38.79 362.07
									 37.53 362.34 37.33 362.38 C31.15 363.69 24.91 364.45 22.27 364.45 C21.43 364.45 20.99 364.15
									 19.29 362.74 C18.86 362.39 18.56 362.16 18.33 361.98 C18.36 362.21 18.4 362.47 18.46 362.77
									 Z" class="st2"/>
					</g>
					<g id="shape141-44" v:mID="141" v:groupContext="shape" transform="translate(0.327199,-29.7315)">
						<title>Sheet.141</title>
						<path d="M2.3 366.56 L0 366.42 C0.12 364.51 6.53 362.15 15.32 360.5 C26.52 358.4 40.03 357.77 54.97 359.15
									 L54.76 361.45 C40.03 360.08 26.73 360.71 15.75 362.77 C11.56 363.55 7.95 364.52 5.29 365.49
									 C4.17 365.91 3.28 366.3 2.69 366.64 C2.44 366.78 2.26 366.9 2.17 366.99 C2.21 366.94 2.28 366.84
									 2.3 366.56 Z" class="st2"/>
					</g>
					<g id="shape142-46" v:mID="142" v:groupContext="shape" transform="translate(50.3262,-8.93733)">
						<title>Sheet.142</title>
						<path d="M48.94 359.07 C49.46 358.69 50.18 358.8 50.55 359.31 C50.93 359.82 50.82 360.55 50.31 360.92 C46.6
									 363.66 37.29 365.45 22.15 366.44 C16.21 366.83 7.95 366.99 1.14 366.82 C0.5 366.81 0 366.28
									 0.02 365.64 C0.03 365.01 0.56 364.5 1.19 364.52 C7.93 364.68 16.13 364.53 22 364.14 C36.67 363.18
									 45.72 361.44 48.94 359.07 Z" class="st2"/>
					</g>
					<g id="shape143-48" v:mID="143" v:groupContext="shape" transform="translate(55.7888,-15.1234)">
						<title>Sheet.143</title>
						<path d="M0 354.39 L0.16 352.09 C9.82 352.76 18.67 353.78 26.71 355.16 C37.72 357.04 46.03 360.23 46.53 363.68
									 C46.69 364.82 46.14 365.92 45 366.99 L43.42 365.31 C44.07 364.7 44.28 364.27 44.25 364 C43.98
									 362.13 36.08 359.1 26.32 357.43 C18.36 356.07 9.59 355.05 0 354.39 Z" class="st2"/>
					</g>
					<g id="shape144-50" v:mID="144" v:groupContext="shape" transform="translate(55.0884,-19.8813)">
						<title>Sheet.144</title>
						<path d="M0 365.66 L0.72 363.47 C1.71 363.79 7.82 363.97 13.57 363.7 C21.14 363.35 27.43 362.38 30.78 360.82
									 L31.75 362.91 C25.1 366.02 4.03 366.99 0 365.66 Z" class="st2"/>
					</g>
				</g>
			</g>
		</g>
		<g id="shape113-52" v:mID="113" v:groupContext="shape" transform="translate(18.375,-59.4251)">
			<title>Rectangle.113</title>
			<v:userDefs>
				<v:ud v:nameU="visVersion" v:val="VT0(15):26"/>
			</v:userDefs>
			<rect x="0" y="148.719" width="161.092" height="218.268" class="st1"/>
		</g>
		<g id="shape87-54" v:mID="87" v:groupContext="shape" transform="translate(692.479,-111.441)">
			<title>Rectangle.87</title>
			<v:userDefs>
				<v:ud v:nameU="visVersion" v:val="VT0(15):26"/>
			</v:userDefs>
			<rect x="0" y="211.081" width="102.48" height="155.906" class="st1"/>
		</g>
		<g id="group41-56" transform="translate(706.652,-111.441)" v:mID="41" v:groupContext="group">
			<title>Sheet.41</title>
			<g id="group42-57" transform="translate(0,-49.677)" v:mID="42" v:groupContext="group">
				<title>Sheet.42</title>
				<g id="shape43-58" v:mID="43" v:groupContext="shape" transform="translate(0,-9.5417)">
					<title>Sheet.43</title>
					<path d="M66.21 366.99 L7.9 366.99 C3.54 366.99 0 363.44 0 359.11 L0 322.13 C0 317.77 3.54 314.23 7.9 314.23
								 L66.24 314.23 C70.59 314.23 74.13 317.77 74.13 322.13 L74.13 359.11 C74.11 363.44 70.57 366.99 66.21
								 366.99 ZM7.9 316.54 C4.82 316.54 2.32 319.05 2.32 322.13 L2.32 359.11 C2.32 362.19 4.82 364.69 7.9
								 364.69 L66.24 364.69 C69.32 364.69 71.82 362.19 71.82 359.11 L71.82 322.13 C71.82 319.05 69.32 316.54
								 66.24 316.54 L7.9 316.54 Z" class="st3"/>
				</g>
				<g id="shape44-60" v:mID="44" v:groupContext="shape" transform="translate(23.6458,0)">
					<title>Sheet.44</title>
					<rect x="0" y="364.67" width="26.8187" height="2.31595" class="st3"/>
				</g>
				<g id="shape45-62" v:mID="45" v:groupContext="shape" transform="translate(29.2967,0)">
					<title>Sheet.45</title>
					<path d="M15.52 366.99 L0 366.99 L0 356.29 L2.32 356.29 L2.32 364.67 L13.2 364.67 L13.2 356.82 L15.52 356.82
								 L15.52 366.99 Z" class="st3"/>
				</g>
			</g>
		</g>
		<g id="group77-64" transform="translate(18.375,-59.1267)" v:mID="77" v:groupContext="group">
			<title>Sheet.77</title>
			<g id="shape78-65" v:mID="78" v:groupContext="shape" transform="translate(15.1024,-73.0932)">
				<title>Sheet.78</title>
				<path d="M94.39 241.65 L72.99 296.28 L72.99 289.89 L36.5 268.83 L0 289.89 L0 330.78 L36.5 351.85 L41.34 349.05 C44.46
							 359.41 54.08 366.99 65.44 366.99 C75.25 366.99 83.74 361.34 87.9 353.13 L94.39 356.88 L131.19 335.64
							 L94.39 241.65 ZM95.65 251.77 L128.07 334.54 L95.65 353.25 L95.65 251.77 ZM93.13 251.78 L93.13 353.26
							 L88.94 350.84 C89.04 350.59 89.1 350.35 89.18 350.1 C89.32 349.72 89.45 349.33 89.57 348.93 C89.69 348.53
							 89.79 348.12 89.89 347.71 C89.97 347.36 90.07 347 90.14 346.64 C90.24 346.14 90.3 345.63 90.37 345.12
							 C90.41 344.83 90.46 344.56 90.49 344.26 C90.57 343.45 90.61 342.64 90.61 341.82 C90.61 341.03 90.57
							 340.26 90.5 339.5 C90.47 339.21 90.43 338.93 90.39 338.65 C90.33 338.18 90.26 337.72 90.18 337.26 C90.11
							 336.91 90.04 336.57 89.97 336.24 C89.88 335.87 89.79 335.5 89.69 335.13 C89.58 334.75 89.47 334.37 89.35
							 334 C89.27 333.75 89.18 333.52 89.09 333.28 C88.74 332.32 88.35 331.4 87.89 330.5 C87.85 330.42 87.81
							 330.33 87.77 330.24 C87.52 329.77 87.26 329.31 86.98 328.86 C86.89 328.71 86.8 328.56 86.71 328.41 C86.42
							 327.96 86.13 327.52 85.82 327.1 C85.73 326.98 85.64 326.86 85.55 326.74 C82.42 322.58 78.06 319.41 72.99
							 317.81 L72.99 303.19 L93.13 251.78 ZM36.5 271.73 L68.86 290.41 L36.5 309.1 L4.14 290.41 L36.5 271.73
							 ZM2.52 292.38 L35.24 311.28 L35.24 348.22 L2.52 329.32 L2.52 292.38 ZM70.48 292.38 L70.48 317.15 C68.85
							 316.82 67.17 316.64 65.44 316.64 C51.56 316.64 40.27 327.94 40.27 341.82 C40.27 342.6 40.32 343.38 40.4
							 344.18 C40.47 344.97 40.58 345.74 40.73 346.51 L37.76 348.22 L37.76 311.28 L70.48 292.38 ZM65.44 319.16
							 C66.38 319.16 67.33 319.23 68.28 319.36 C68.39 319.37 68.5 319.39 68.61 319.41 C69.44 319.53 70.27 319.71
							 71.11 319.92 L71.4 320 C75.67 321.17 79.38 323.52 82.21 326.63 C82.25 326.68 82.28 326.72 82.32 326.76
							 C82.69 327.18 83.04 327.6 83.38 328.04 C83.43 328.1 83.47 328.16 83.52 328.22 C84.85 329.98 85.92 331.95
							 86.69 334.04 C86.77 334.25 86.85 334.45 86.92 334.66 C87.04 335.03 87.15 335.4 87.25 335.77 C87.34 336.08
							 87.42 336.39 87.49 336.71 C87.57 337.03 87.64 337.36 87.7 337.69 C87.78 338.1 87.84 338.51 87.89 338.92
							 C87.93 339.18 87.96 339.45 87.99 339.71 C88.05 340.4 88.1 341.1 88.1 341.82 C88.1 342.6 88.06 343.37
							 87.98 344.14 C87.97 344.22 87.95 344.3 87.94 344.38 C87.87 345.06 87.77 345.75 87.63 346.43 C87.61 346.49
							 87.59 346.55 87.58 346.62 C87.43 347.3 87.25 347.99 87.04 348.66 C87.01 348.74 86.97 348.82 86.95 348.9
							 C86.74 349.54 86.5 350.18 86.23 350.8 C82.75 358.83 74.74 364.47 65.44 364.47 C54.67 364.47 45.65 356.91
							 43.37 346.82 C42.99 345.12 42.79 343.44 42.79 341.82 C42.79 329.32 52.95 319.16 65.44 319.16 Z"
						class="st4"/>
			</g>
		</g>
		<g id="shape85-67" v:mID="85" v:groupContext="shape" transform="translate(663.173,-95.5789)">
			<title>Rectangle</title>
			<desc>Control Program</desc>
			<v:userDefs>
				<v:ud v:nameU="visVersion" v:val="VT0(15):26"/>
			</v:userDefs>
			<v:textBlock v:margins="rect(4,4,4,4)" v:tabSpace="42.5197"/>
			<v:textRect cx="80.546" cy="350.525" width="161.1" height="32.9221"/>
			<rect x="0" y="334.064" width="161.092" height="32.9221" class="st5"/>
			<text x="14.58" y="355.93" class="st6" v:langID="1033"><v:paragraph v:horizAlign="1"/><v:tabList/>Control Program</text>		</g>
		<g id="shape88-70" v:mID="88" v:groupContext="shape" v:layerMember="0" transform="translate(692.479,-207.337)">
			<title>Dynamic connector</title>
			<path d="M0 366.99 L-191.41 299.96" class="st7"/>
		</g>
		<g id="shape109-76" v:mID="109" v:groupContext="shape" v:layerMember="0" transform="translate(692.479,-193.753)">
			<title>Dynamic connector.109</title>
			<path d="M0 372.27 L-190.91 375.71" class="st7"/>
		</g>
		<g id="shape110-81" v:mID="110" v:groupContext="shape" v:layerMember="0" transform="translate(692.479,-169.603)">
			<title>Dynamic connector.110</title>
			<path d="M0 366.99 L-191.51 440.96" class="st7"/>
		</g>
		<g id="shape111-86" v:mID="111" v:groupContext="shape" transform="translate(533.824,-275.693)">
			<title>Sheet.111</title>
			<desc>Spawn Msg</desc>
			<v:textBlock v:margins="rect(4,4,4,4)" v:tabSpace="42.5197"/>
			<v:textRect cx="76" cy="356.986" width="152.01" height="20"/>
			<rect x="0" y="346.986" width="152" height="20" class="st9"/>
			<text x="29.09" y="362.39" class="st6" v:langID="1033"><v:paragraph v:horizAlign="1"/><v:tabList/>Spawn Msg</text>		</g>
		<g id="shape112-89" v:mID="112" v:groupContext="shape" transform="translate(33.028,-88.8653)">
			<title>Rectangle.112</title>
			<desc>Virtual Effect</desc>
			<v:userDefs>
				<v:ud v:nameU="visVersion" v:val="VT0(15):26"/>
			</v:userDefs>
			<v:textBlock v:margins="rect(4,4,4,4)" v:tabSpace="42.5197"/>
			<v:textRect cx="65.893" cy="350.525" width="131.79" height="32.9221"/>
			<rect x="0" y="334.064" width="131.786" height="32.9221" class="st5"/>
			<text x="14.88" y="355.93" class="st6" v:langID="1033"><v:paragraph v:horizAlign="1"/><v:tabList/>Virtual Effect</text>		</g>
		<g id="shape114-92" v:mID="114" v:groupContext="shape" v:layerMember="0" transform="translate(374.151,-294.778)">
			<title>Dynamic connector.114</title>
			<path d="M0 366.99 L-194.68 456.27" class="st10"/>
		</g>
		<g id="shape115-95" v:mID="115" v:groupContext="shape" v:layerMember="0" transform="translate(371.011,-185.649)">
			<title>Dynamic connector.115</title>
			<path d="M0 368.64 L-191.54 379.51" class="st10"/>
		</g>
		<g id="shape116-98" v:mID="116" v:groupContext="shape" v:layerMember="0" transform="translate(370.26,-74.9123)">
			<title>Dynamic connector.116</title>
			<path d="M0 366.99 L-190.79 301.14" class="st10"/>
		</g>
	</g>
</svg>
