<?xml version="1.0" encoding="UTF-8" standalone="no"?>
<!DOCTYPE svg PUBLIC "-//W3C//DTD SVG 1.1//EN" "http://www.w3.org/Graphics/SVG/1.1/DTD/svg11.dtd">
<!-- Generated by Microsoft Visio, SVG Export MR-Theater-design2.svg Page-1 -->
<svg xmlns="http://www.w3.org/2000/svg" xmlns:xlink="http://www.w3.org/1999/xlink" xmlns:ev="http://www.w3.org/2001/xml-events"
		xmlns:v="http://schemas.microsoft.com/visio/2003/SVGExtensions/" width="11.7259in" height="2.90476in"
		viewBox="0 0 844.265 209.143" xml:space="preserve" color-interpolation-filters="sRGB" class="st11">
	<v:documentProperties v:langID="1033" v:metric="true" v:viewMarkup="false">
		<v:userDefs>
			<v:ud v:nameU="msvSubprocessMaster" v:prompt="" v:val="VT4(Rectangle)"/>
			<v:ud v:nameU="msvNoAutoConnect" v:val="VT0(1):26"/>
		</v:userDefs>
	</v:documentProperties>

	<style type="text/css">
	<![CDATA[
		.st1 {fill:#ffffff;stroke:none;stroke-linecap:round;stroke-linejoin:round;stroke-width:0.75}
		.st2 {fill:#000000;stroke:none;stroke-linecap:butt;stroke-width:7.65}
		.st3 {fill:#000000;stroke:none;stroke-linecap:butt;stroke-width:19.125}
		.st4 {fill:#ffffff;stroke:#000000;stroke-linecap:round;stroke-linejoin:round;stroke-width:2}
		.st5 {fill:#000000;font-family:Microsoft Sans Serif;font-size:1.5em}
		.st6 {marker-start:url(#mrkr4-40);stroke:#000000;stroke-linecap:round;stroke-linejoin:round;stroke-width:2}
		.st7 {fill:#000000;fill-opacity:1;stroke:#000000;stroke-opacity:1;stroke-width:0.44247787610619}
		.st8 {fill:#000000;stroke:none;stroke-linecap:butt;stroke-width:6.12}
		.st9 {stroke:#000000;stroke-dasharray:14,10;stroke-linecap:round;stroke-linejoin:round;stroke-width:2}
		.st10 {fill:none;stroke:none;stroke-linecap:round;stroke-linejoin:round;stroke-width:0.75}
		.st11 {fill:none;fill-rule:evenodd;font-size:12px;overflow:visible;stroke-linecap:square;stroke-miterlimit:3}
	]]>
	</style>

	<defs id="Markers">
		<g id="lend4">
			<path d="M 2 1 L 0 0 L 2 -1 L 2 1 " style="stroke:none"/>
		</g>
		<marker id="mrkr4-40" class="st7" v:arrowType="4" v:arrowSize="2" v:setback="4.34" refX="4.34" orient="auto"
				markerUnits="strokeWidth" overflow="visible">
			<use xlink:href="#lend4" transform="scale(2.26) "/>
		</marker>
	</defs>
	<g v:mID="0" v:index="1" v:groupContext="foregroundPage">
		<v:userDefs>
			<v:ud v:nameU="msvThemeOrder" v:val="VT0(0):26"/>
		</v:userDefs>
		<title>Page-1</title>
		<v:pageProperties v:drawingScale="0.0393701" v:pageScale="0.0393701" v:drawingUnits="24" v:shadowOffsetX="8.50394"
				v:shadowOffsetY="-8.50394"/>
		<v:layer v:name="Connector" v:index="0"/>
		<g id="shape174-1" v:mID="174" v:groupContext="shape" transform="translate(18,-56.6929)">
			<title>Rectangle.113</title>
			<v:userDefs>
				<v:ud v:nameU="visVersion" v:val="VT0(15):26"/>
			</v:userDefs>
			<rect x="0" y="119.851" width="161.092" height="89.2913" class="st1"/>
		</g>
		<g id="shape168-3" v:mID="168" v:groupContext="shape" transform="translate(49.5308,-66.5205)">
			<title>Rectangle.168</title>
			<v:userDefs>
				<v:ud v:nameU="visVersion" v:val="VT0(15):26"/>
			</v:userDefs>
			<rect x="0" y="124.103" width="70.7244" height="85.0394" class="st1"/>
		</g>
		<g id="group146-5" transform="translate(341.532,-62.2685)" v:mID="146" v:groupContext="group">
			<title>Sheet.146</title>
			<g id="shape147-6" v:mID="147" v:groupContext="shape">
				<title>Rectangle.82</title>
				<v:userDefs>
					<v:ud v:nameU="visVersion" v:val="VT0(15):26"/>
				</v:userDefs>
				<rect x="0" y="119.851" width="152" height="89.2913" class="st1"/>
			</g>
			<g id="group148-8" transform="translate(29.3061,-24.9521)" v:mID="148" v:groupContext="group">
				<v:userDefs/>
				<title>Microsoft Hololens</title>
				<desc>Created with Sketch.</desc>
				<g id="group149-9" v:mID="149" v:groupContext="group">
					<title>Sheet.149</title>
					<g id="shape150-10" v:mID="150" v:groupContext="shape" transform="translate(53.343,-18.1974)">
						<title>Sheet.150</title>
						<path d="M46.33 199.93 C45.88 199.54 45.18 199.07 44.28 198.55 C42.16 197.34 39.17 196 35.55 194.71 C26.24
									 191.39 14.18 188.79 0 187.47 L0.21 185.18 C14.58 186.51 26.83 189.15 36.33 192.54 C43.92 195.25
									 48.97 198.15 48.97 200.02 L48.97 209.14 L46.67 209.14 L46.67 200.25 C46.6 200.16 46.48 200.05
									 46.33 199.93 Z" class="st2"/>
					</g>
					<g id="shape151-12" v:mID="151" v:groupContext="shape">
						<title>Sheet.151</title>
						<path d="M2.85 176.18 C2.32 181.36 2.63 186.6 4.48 192.47 C5.88 196.92 7.62 200.65 9.42 203.22 C10.89 205.31
									 12.22 206.34 12.75 206.24 C12.94 206.2 13.15 206.16 13.38 206.12 C13.55 206.09 13.71 206.07
									 14.02 206.02 C15.18 205.83 15.7 205.72 16.06 205.54 C16.26 205.45 16.22 205.51 16.2 205.4 C15.71
									 202.89 16 201.38 17.74 201.41 C18.59 201.43 19.18 201.83 20.67 203.05 C21.73 203.92 22.27 204.3
									 22.27 204.3 C24.74 204.3 30.82 203.56 36.85 202.28 C37.05 202.24 38.31 201.97 38.67 201.9 C39.36
									 201.75 39.91 201.63 40.43 201.52 C47.33 200.01 50.42 198.8 51.01 197.26 C51.18 196.81 51.78
									 195.27 51.84 195.13 C53 192.12 53.61 190.05 53.97 187.44 C54.66 182.56 54.77 177.81 54.38 174.13
									 C54.2 172.46 53.92 171.1 53.58 170.17 C53.43 169.76 53.28 169.46 53.14 169.28 C39.12 167.92
									 26.41 168.53 15.92 170.49 C11.91 171.25 8.46 172.17 5.91 173.1 C4.85 173.5 3.99 173.88 3.43
									 174.2 C3.27 174.29 3.14 174.37 3.05 174.44 C2.99 174.96 2.88 175.87 2.85 176.18 ZM53.16 169.22
									 C53.18 169.22 53.21 169.22 53.25 169.23 C53.22 169.23 53.2 169.23 53.18 169.22 L53.16 169.22
									 ZM18.46 204.93 C18.72 206.15 18.15 207.1 17.06 207.62 C16.42 207.93 15.78 208.07 14.39 208.29
									 C14.07 208.35 13.92 208.37 13.76 208.4 C13.54 208.43 13.36 208.47 13.18 208.5 C9.82 209.14 5.25
									 202.61 2.28 193.16 C0.32 186.96 0 181.42 0.56 175.94 C0.61 175.48 0.77 174.1 0.78 173.94 C0.9
									 172.08 7.03 169.82 15.49 168.23 C26.21 166.22 39.16 165.61 53.53 166.94 C56.69 167.43 57.74
									 177.15 56.26 187.76 C55.86 190.58 55.21 192.8 53.99 195.96 C53.93 196.11 53.33 197.64 53.17
									 198.08 C52.15 200.75 48.82 202.04 40.93 203.77 C40.4 203.89 39.84 204 39.15 204.15 C38.79 204.23
									 37.53 204.5 37.33 204.54 C31.15 205.85 24.91 206.6 22.27 206.6 C21.43 206.6 20.99 206.3 19.29
									 204.9 C18.86 204.55 18.56 204.31 18.33 204.14 C18.36 204.37 18.4 204.63 18.46 204.93 Z"
								class="st2"/>
					</g>
					<g id="shape152-14" v:mID="152" v:groupContext="shape" transform="translate(0.327199,-29.7315)">
						<title>Sheet.152</title>
						<path d="M2.3 208.72 L0 208.57 C0.12 206.67 6.53 204.31 15.32 202.66 C26.52 200.56 40.03 199.92 54.97 201.31
									 L54.76 203.6 C40.03 202.24 26.73 202.86 15.75 204.92 C11.56 205.71 7.95 206.67 5.29 207.65 C4.17
									 208.06 3.28 208.46 2.69 208.8 C2.44 208.94 2.26 209.06 2.17 209.14 C2.21 209.1 2.28 209 2.3
									 208.72 Z" class="st2"/>
					</g>
					<g id="shape153-16" v:mID="153" v:groupContext="shape" transform="translate(50.3262,-8.93733)">
						<title>Sheet.153</title>
						<path d="M48.94 201.22 C49.46 200.85 50.18 200.96 50.55 201.47 C50.93 201.98 50.82 202.7 50.31 203.08 C46.6
									 205.82 37.29 207.61 22.15 208.6 C16.21 208.99 7.95 209.14 1.14 208.98 C0.5 208.96 0 208.44 0.02
									 207.8 C0.03 207.16 0.56 206.66 1.19 206.68 C7.93 206.84 16.13 206.68 22 206.3 C36.67 205.34
									 45.72 203.6 48.94 201.22 Z" class="st2"/>
					</g>
					<g id="shape154-18" v:mID="154" v:groupContext="shape" transform="translate(55.7888,-15.1234)">
						<title>Sheet.154</title>
						<path d="M0 196.55 L0.16 194.25 C9.82 194.92 18.67 195.94 26.71 197.31 C37.72 199.2 46.03 202.38 46.53 205.83
									 C46.69 206.97 46.14 208.07 45 209.14 L43.42 207.46 C44.07 206.86 44.28 206.43 44.25 206.16 C43.98
									 204.28 36.08 201.25 26.32 199.58 C18.36 198.22 9.59 197.21 0 196.55 Z" class="st2"/>
					</g>
					<g id="shape155-20" v:mID="155" v:groupContext="shape" transform="translate(55.0884,-19.8813)">
						<title>Sheet.155</title>
						<path d="M0 207.81 L0.72 205.62 C1.71 205.95 7.82 206.12 13.57 205.86 C21.14 205.51 27.43 204.54 30.78 202.98
									 L31.75 205.07 C25.1 208.17 4.03 209.14 0 207.81 Z" class="st2"/>
					</g>
				</g>
			</g>
		</g>
		<g id="shape87-22" v:mID="87" v:groupContext="shape" transform="translate(693.479,-34.862)">
			<title>Rectangle.87</title>
			<v:userDefs>
				<v:ud v:nameU="visVersion" v:val="VT0(15):26"/>
			</v:userDefs>
			<rect x="0" y="53.237" width="102.48" height="155.906" class="st1"/>
		</g>
		<g id="group41-24" transform="translate(707.652,-34.862)" v:mID="41" v:groupContext="group">
			<title>Sheet.41</title>
			<g id="group42-25" transform="translate(0,-49.677)" v:mID="42" v:groupContext="group">
				<title>Sheet.42</title>
				<g id="shape43-26" v:mID="43" v:groupContext="shape" transform="translate(0,-9.5417)">
					<title>Sheet.43</title>
					<path d="M66.21 209.14 L7.9 209.14 C3.54 209.14 0 205.6 0 201.27 L0 164.28 C0 159.93 3.54 156.39 7.9 156.39 L66.24
								 156.39 C70.59 156.39 74.13 159.93 74.13 164.28 L74.13 201.27 C74.11 205.6 70.57 209.14 66.21 209.14
								 ZM7.9 158.7 C4.82 158.7 2.32 161.2 2.32 164.28 L2.32 201.27 C2.32 204.35 4.82 206.85 7.9 206.85
								 L66.24 206.85 C69.32 206.85 71.82 204.35 71.82 201.27 L71.82 164.28 C71.82 161.2 69.32 158.7 66.24
								 158.7 L7.9 158.7 Z" class="st3"/>
				</g>
				<g id="shape44-28" v:mID="44" v:groupContext="shape" transform="translate(23.6458,-2.84217E-14)">
					<title>Sheet.44</title>
					<rect x="0" y="206.827" width="26.8187" height="2.31595" class="st3"/>
				</g>
				<g id="shape45-30" v:mID="45" v:groupContext="shape" transform="translate(29.2967,0)">
					<title>Sheet.45</title>
					<path d="M15.52 209.14 L0 209.14 L0 198.44 L2.32 198.44 L2.32 206.83 L13.2 206.83 L13.2 198.98 L15.52 198.98
								 L15.52 209.14 Z" class="st3"/>
				</g>
			</g>
		</g>
		<g id="shape85-32" v:mID="85" v:groupContext="shape" transform="translate(664.173,-19)">
			<title>Rectangle</title>
			<desc>Control Program</desc>
			<v:userDefs>
				<v:ud v:nameU="visVersion" v:val="VT0(15):26"/>
			</v:userDefs>
			<v:textBlock v:margins="rect(4,4,4,4)" v:tabSpace="42.5197"/>
			<v:textRect cx="80.546" cy="192.681" width="161.1" height="32.9221"/>
			<rect x="0" y="176.22" width="161.092" height="32.9221" class="st4"/>
			<text x="14.58" y="198.08" class="st5" v:langID="1033"><v:paragraph v:horizAlign="1"/><v:tabList/>Control Program</text>		</g>
		<g id="shape109-35" v:mID="109" v:groupContext="shape" v:layerMember="0" transform="translate(693.479,-117.174)">
			<title>Dynamic connector.109</title>
			<path d="M-8.68 214.58 L-9.04 214.59 L-199.95 218.03" class="st6"/>
		</g>
		<g id="group166-41" transform="translate(49.5308,-62.2685)" v:mID="166" v:groupContext="group">
			<title>Sheet.166</title>
			<g id="shape167-42" v:mID="167" v:groupContext="shape" transform="translate(24.999,-31.9009)">
				<title>Sheet.167</title>
				<path d="M48.52 204.4 L39.96 199.31 L40.17 183.82 C40.17 183.82 40.17 183.82 40.17 183.75 C40.17 183.68 40.17 183.61
							 40.17 183.54 C40.17 183.54 40.17 183.47 40.17 183.47 C40.17 183.4 40.1 183.26 40.03 183.19 C39.96 183.12
							 39.89 183.05 39.89 182.97 C39.89 182.97 39.82 182.97 39.82 182.9 C39.75 182.83 39.68 182.83 39.61 182.76
							 C39.61 182.76 39.61 182.76 39.53 182.76 L26.24 174.84 L26.24 164.94 C26.24 164.23 25.67 163.67 25.04
							 163.67 C25.04 163.67 25.04 163.67 25.04 163.67 C24.33 163.67 23.83 164.23 23.76 164.87 L23.76 174.77
							 L10.26 182.34 C10.26 182.34 10.26 182.34 10.18 182.34 C10.11 182.41 10.04 182.41 9.97 182.48 C9.97 182.48
							 9.9 182.48 9.9 182.55 C9.83 182.62 9.76 182.69 9.69 182.76 C9.62 182.83 9.62 182.97 9.55 183.05 C9.55
							 183.05 9.55 183.12 9.55 183.12 C9.55 183.19 9.55 183.26 9.55 183.33 C9.55 183.33 9.55 183.33 9.55 183.4
							 L9.34 198.96 L0.78 203.77 C0.21 204.12 0 204.83 0.28 205.46 C0.5 205.89 0.92 206.1 1.34 206.1 C1.56
							 206.1 1.77 206.03 1.98 205.96 L10.61 201.15 L23.83 209 C23.83 209 23.83 209 23.9 209 C23.98 209.07 24.05
							 209.07 24.12 209.07 C24.12 209.07 24.19 209.07 24.19 209.07 C24.26 209.07 24.4 209.14 24.47 209.14 C24.47
							 209.14 24.47 209.14 24.47 209.14 C24.54 209.14 24.68 209.14 24.75 209.07 C24.75 209.07 24.82 209.07
							 24.82 209.07 C24.89 209.07 24.97 209 25.04 209 C25.04 209 25.04 209 25.11 209 L38.62 201.43 L47.17 206.53
							 C47.39 206.67 47.6 206.67 47.81 206.67 C48.23 206.67 48.66 206.45 48.87 206.03 C49.29 205.54 49.08 204.76
							 48.52 204.4 ZM11.88 198.96 L12.02 185.59 L23.48 192.38 L23.34 205.75 L11.88 198.96 ZM24.97 176.96 L36.42
							 183.75 L24.82 190.26 L13.37 183.47 L24.97 176.96 ZM26.03 192.52 L37.63 186.02 L37.48 199.38 L25.89 205.89
							 L26.03 192.52 Z" class="st8"/>
			</g>
		</g>
		<g id="shape169-44" v:mID="169" v:groupContext="shape" v:layerMember="0" transform="translate(120.255,-116.1)">
			<title>Dynamic connector</title>
			<path d="M0 216.21 L251.46 216.25" class="st9"/>
		</g>
		<g id="shape170-47" v:mID="170" v:groupContext="shape" transform="translate(33.3196,-18)">
			<title>Rectangle.112</title>
			<desc>Anchor</desc>
			<v:userDefs>
				<v:ud v:nameU="visVersion" v:val="VT0(15):26"/>
			</v:userDefs>
			<v:textBlock v:margins="rect(4,4,4,4)" v:tabSpace="42.5197"/>
			<v:textRect cx="65.893" cy="192.681" width="131.79" height="32.9221"/>
			<rect x="0" y="176.22" width="131.786" height="32.9221" class="st4"/>
			<text x="37.38" y="198.08" class="st5" v:langID="1033"><v:paragraph v:horizAlign="1"/><v:tabList/>Anchor</text>		</g>
		<g id="shape171-50" v:mID="171" v:groupContext="shape" transform="translate(511.236,-126.838)">
			<title>Sheet.171</title>
			<desc>Anchor Data</desc>
			<v:textBlock v:margins="rect(4,4,4,4)" v:tabSpace="42.5197"/>
			<v:textRect cx="76" cy="199.143" width="152.01" height="20"/>
			<rect x="0" y="189.143" width="152" height="20" class="st10"/>
			<text x="26.08" y="204.54" class="st5" v:langID="1033"><v:paragraph v:horizAlign="1"/><v:tabList/>Anchor Data</text>		</g>
		<g id="shape173-53" v:mID="173" v:groupContext="shape" transform="translate(150.772,-126.838)">
			<title>Sheet.173</title>
			<desc>Placing</desc>
			<v:textBlock v:margins="rect(4,4,4,4)" v:tabSpace="42.5197"/>
			<v:textRect cx="76" cy="199.143" width="152.01" height="20"/>
			<rect x="0" y="189.143" width="152" height="20" class="st10"/>
			<text x="46.38" y="204.54" class="st5" v:langID="1033"><v:paragraph v:horizAlign="1"/><v:tabList/>Placing</text>		</g>
	</g>
</svg>
