# 3ds Max Wavefront OBJ Exporter v0.97b - (c)2007 guruware
# 创建的文件:16.04.2019 16:50:45

#
# object x
#

v  0.282843 -0.424264 -0.100000
v  -0.424264 0.282843 -0.100000
v  -0.282843 0.424264 -0.100000
v  0.424264 -0.282843 -0.100000
v  0.282843 -0.424264 0.100000
v  0.424264 -0.282843 0.100000
v  -0.282843 0.424264 0.100000
v  -0.424264 0.282843 0.100000
v  0.141421 -0.000000 -0.100000
v  0.000000 0.141421 -0.100000
v  0.282843 0.424264 -0.100000
v  0.424264 0.282843 -0.100000
v  0.141421 -0.000000 0.100000
v  0.424264 0.282843 0.100000
v  0.282843 0.424264 0.100000
v  0.000000 0.141421 0.100000
v  -0.282843 -0.424264 -0.100000
v  -0.424264 -0.282843 -0.100000
v  -0.141421 0.000000 -0.100000
v  0.000000 -0.141421 -0.100000
v  -0.282843 -0.424264 0.100000
v  0.000000 -0.141421 0.100000
v  -0.141421 0.000000 0.100000
v  -0.424264 -0.282843 0.100000
# 24 vertices

vn -0.000000 0.000000 -1.000000
vn 0.000000 -0.000000 1.000000
vn 0.707107 -0.707107 -0.000000
vn 0.707107 0.707107 -0.000000
vn -0.707107 0.707107 0.000000
vn -0.707107 -0.707107 -0.000000
# 6 vertex normals

o x
g x
s 2
f 1//1 2//1 3//1 
f 3//1 4//1 1//1 
s 4
f 5//2 6//2 7//2 
f 7//2 8//2 5//2 
s 8
f 1//3 4//3 6//3 
f 6//3 5//3 1//3 
s 16
f 4//4 3//4 7//4 
f 7//4 6//4 4//4 
s 32
f 3//5 2//5 8//5 
f 8//5 7//5 3//5 
s 64
f 2//6 1//6 5//6 
f 5//6 8//6 2//6 
s 2
f 9//1 10//1 11//1 
f 11//1 12//1 9//1 
s 4
f 13//2 14//2 15//2 
f 15//2 16//2 13//2 
s 8
f 9//3 12//3 14//3 
f 14//3 13//3 9//3 
s 16
f 12//4 11//4 15//4 
f 15//4 14//4 12//4 
s 32
f 11//5 10//5 16//5 
f 16//5 15//5 11//5 
s 2
f 17//1 18//1 19//1 
f 19//1 20//1 17//1 
s 4
f 21//2 22//2 23//2 
f 23//2 24//2 21//2 
s 8
f 17//3 20//3 22//3 
f 22//3 21//3 17//3 
s 32
f 19//5 18//5 24//5 
f 24//5 23//5 19//5 
s 64
f 18//6 17//6 21//6 
f 21//6 24//6 18//6 
# 32 faces

